<?xml version="1.0" encoding="utf-8"?>
<!-- Generator: Adobe Illustrator 22.0.0, SVG Export Plug-In . SVG Version: 6.00 Build 0)  -->
<svg version="1.1" id="Layer_1" xmlns="http://www.w3.org/2000/svg" xmlns:xlink="http://www.w3.org/1999/xlink" x="0px" y="0px"
	 viewBox="0 0 100 100" style="enable-background:new 0 0 100 100;" xml:space="preserve">
<style type="text/css">
	.st0{fill:#F2F2F2;}
	.st1{fill:#A8C5E7;}
	.st2{fill:#4464AE;}
	.st3{fill:#FDE890;}
	.st4{fill:#CDCFCE;}
	.st5{fill:#4B70B6;}
	.st6{fill:#F6A6A7;}
	.st7{fill:#80CFD9;}
	.st8{fill:#FDE784;}
	.st9{fill:#E0E9F6;}
	.st10{fill:#F8CECD;}
</style>
<g>
	<path class="st0" d="M1.1,35.1C0.6,26.7,3.8,18.5,10,12.8c7.6-7,21-14.1,43.6-12.6c0,0,50,5.2,45.1,42.4c-0.2,1.2-0.4,2.3-0.7,3.4
		c-2.6,9.7-17.8,62.8-38.9,52.7c0,0-32.7-14.4-50.5-38.6C8.5,60.2,2.1,51.8,1.1,35.1z"/>
	<g>
		<path class="st1" d="M71.5,40.6c-0.1,0-0.1,0-0.2,0l0,0c0.1-3.4-2-6.3-5-7.4c1.7-3.1,1.2-7.1-1.5-9.5l0.1-0.1
			c2.6-2.9,2.4-7.3-0.5-9.8c-2.9-2.6-7.3-2.4-9.8,0.5c0,0-0.1,0.1-0.1,0.2l0,0c-3.2-2.9-8.1-2.6-10.9,0.5c-0.8,0.9-1.3,1.9-1.7,3
			l7.4,0.6c3.3,0.2,6,2.5,7,5.6L52.5,41l9.5,2.1l1.7,20.7c0.3,0.1,4.7-3.7,4.9-3.5c1.5-1.4,2.6-3.4,2.6-5.6c0.1,0,0.1,0,0.2,0
			c3.8,0.1,7-2.9,7.1-6.8C78.4,43.9,75.3,40.7,71.5,40.6z"/>
		<path class="st2" d="M68.3,60.8c-0.1,0-5,3.7-5.2,3.6c-0.1-0.1-1.4-20.8-1.4-20.8c-0.3,0-0.6-0.2-0.7-0.5l-0.6-1.7
			c0,0,0,0-4.4,1.1l-5-17.3c3.6-3.9,1.1-6-1.9-6.2l-7.4-0.6c-0.2,0-0.4-0.1-0.6-0.3c-0.1-0.1-0.1-0.4,0-0.6c0.4-1.2,1-2.3,1.8-3.3
			c3-3.3,8-3.7,11.5-1.1c2.9-2.8,7.5-2.9,10.6-0.1c1.5,1.4,2.4,3.3,2.5,5.4c0.1,1.9-0.5,3.7-1.6,5.2c2.3,2.5,2.9,6.1,1.5,9.2
			c2.7,1.4,4.5,4.1,4.7,7.1c1.9,0.2,3.6,1,4.9,2.4c1.4,1.5,2.2,3.5,2.1,5.5c-0.1,2.1-0.9,4-2.4,5.4c-1.4,1.3-3.1,2-5,2.1
			c-0.2,2.1-1.2,4-2.8,5.4C68.7,60.8,68.5,60.9,68.3,60.8z M62.4,42.1l1.4,21c1-1.2,7.7-4.9,6.4-8.7c0-0.2,0.1-0.4,0.2-0.5
			c0.2-0.1,0.4-0.2,0.6-0.2h0.1h0.1c1.7,0,3.2-0.6,4.4-1.7c1.2-1.1,1.9-2.7,1.9-4.3s-0.6-3.2-1.7-4.4s-2.7-1.9-4.3-1.9l0,0
			c0,0,0,0-0.1,0h-0.1c-0.2,0-0.4-0.1-0.6-0.2c-0.1-0.1-0.2-0.4-0.2-0.6c0,0,0,0,0-0.1c0.1-3-1.7-5.6-4.5-6.7
			c-0.2-0.1-0.4-0.2-0.5-0.5c-0.1-0.2-0.1-0.4,0.1-0.6c1.6-2.8,1-6.4-1.4-8.6C64.1,24,64,23.8,64,23.6c0-0.2,0.1-0.4,0.2-0.6
			l0.1-0.1l0,0c1.1-1.2,1.7-2.8,1.6-4.5s-0.8-3.2-2-4.3c-2.5-2.3-6.5-2.1-8.8,0.4l0,0c0,0,0,0.1-0.1,0.1c-0.1,0.2-0.3,0.3-0.5,0.3
			s-0.4-0.1-0.6-0.2l0,0c-2.9-2.6-7.3-2.3-9.8,0.5c-0.5,0.5-0.9,1.1-1.2,1.7l6.3,0.5c3.6,0.3,6.6,2.8,3.3,7.4l5,17.3H62.4z"/>
		<path class="st1" d="M79.3,30.7c-0.2,2.1-2,3.8-4.2,3.6c-2.1-0.2-3.8-2-3.6-4.2c0.2-2.1,2-3.8,4.2-3.6
			C77.9,26.7,79.5,28.5,79.3,30.7z"/>
		<path class="st2" d="M75.1,35.1c-1-0.1-2-0.5-2.8-1.2c-0.9-0.8-1.5-2-1.5-3.2c-0.1-1.2,0.4-2.4,1.2-3.4c0.8-0.9,2-1.5,3.2-1.5
			c1.2-0.1,2.4,0.4,3.4,1.2c1.9,1.7,2.1,4.7,0.3,6.6C77.9,34.6,76.5,35.2,75.1,35.1z M75.7,27.3c-0.1,0-0.3,0-0.4,0
			c-0.8,0-1.6,0.4-2.2,1c-1.2,1.3-1.1,3.3,0.2,4.4c1.3,1.2,3.3,1.1,4.4-0.2c1.2-1.3,1.1-3.3-0.2-4.4C77,27.6,76.4,27.3,75.7,27.3z"
			/>
		<path class="st1" d="M25.7,45.3c-0.2,2.1-2,3.8-4.2,3.6c-2.1-0.2-3.8-2-3.6-4.2c0.2-2.1,2-3.8,4.2-3.6
			C24.2,41.3,25.8,43.2,25.7,45.3z"/>
		<path class="st2" d="M21.4,49.7c-1-0.1-2-0.5-2.8-1.2c-0.9-0.8-1.5-2-1.5-3.2c-0.1-1.2,0.4-2.4,1.2-3.4c0.8-0.9,2-1.5,3.2-1.5
			c1.2-0.1,2.4,0.4,3.4,1.2c1.9,1.7,2.1,4.7,0.3,6.6C24.2,49.3,22.8,49.8,21.4,49.7z M22,41.9c-0.1,0-0.3,0-0.4,0
			c-0.8,0-1.6,0.4-2.2,1c-1.2,1.3-1.1,3.3,0.2,4.4c1.3,1.2,3.3,1.1,4.4-0.2c1.2-1.3,1.1-3.3-0.2-4.4C23.4,42.2,22.7,42,22,41.9z"/>
		<path class="st1" d="M36.1,63L36.1,63l0.1-12.5c0-2.1,1.7-3.8,3.8-3.8h3.4l0,0l1-2.7c-0.7,0.2-1.4,0.6-2,1c0-0.1-0.1-0.1-0.1-0.2
			c-2.3-3.1-6.6-3.8-9.7-1.5s-3.8,6.6-1.5,9.7l0.1,0.1l0,0c-3.4,2.5-4.2,7.4-1.7,10.8c-0.1,0-0.1,0.1-0.2,0.1
			c-3.1,2.3-3.8,6.6-1.5,9.7s6.6,3.8,9.7,1.5c0.1,0,0.1-0.1,0.2-0.1l0,0c1.8,2.4,4.7,3.5,7.4,3.1v-5.4C45.2,73.1,34.9,63,36.1,63z"
			/>
		<path class="st2" d="M44,79.4c-2.4,0-4.8-1-6.4-2.9c-3.4,2.1-8,1.3-10.4-2s-1.8-7.9,1.2-10.5c-2.1-3.5-1.4-8.1,1.7-10.8
			c-1-1.6-1.4-3.4-1.1-5.3c0.3-2,1.4-3.8,3.1-5.1C35.4,40.4,40,41,42.6,44c0.5-0.3,1-0.5,1.5-0.7c0.3-0.1,0.6,0,0.8,0.2
			s0.3,0.5,0.2,0.8l-0.9,2.5c0,0.4-0.4,0.7-0.8,0.7H40c-1.7,0-3,1.4-3,3V63c0,0.4,8.2,9.3,8.2,9.3c0.4,0,0.8,0.3,0.8,0.8v5.4
			c0,0.4-0.3,0.7-0.7,0.8C44.8,79.3,44.4,79.4,44,79.4z M38.4,75c1.4,1.9,3.7,3,6,2.8v-3.9c0,0-10.3-11.2-9-11.5V50.6
			c0-2.5,2.1-4.6,4.6-4.6h2.9l0.1-0.3c0,0-0.1,0-0.1,0.1c-0.2,0.1-0.4,0.2-0.6,0.1c-0.2,0-0.4-0.2-0.5-0.3c0,0,0-0.1-0.1-0.1l0,0
			c-2-2.8-5.9-3.4-8.7-1.3c-1.3,1-2.2,2.4-2.5,4.1c-0.3,1.6,0.1,3.3,1.1,4.6l0,0c0,0,0,0.1,0.1,0.1c0.1,0.2,0.2,0.4,0.2,0.6
			c0,0.2-0.1,0.4-0.3,0.5h-0.1c-3.1,2.3-3.7,6.6-1.5,9.7c0.1,0.2,0.2,0.4,0.1,0.6c0,0.2-0.2,0.4-0.3,0.5c0,0-0.1,0-0.1,0.1l0,0
			c-2.8,2-3.4,5.9-1.3,8.7c2,2.8,5.9,3.4,8.7,1.3l0,0l0.1-0.1c0.2-0.1,0.4-0.2,0.6-0.2S38.2,74.8,38.4,75C38.3,75,38.3,75,38.4,75z"
			/>
		<path class="st3" d="M15.4,15.7c-1.3,2.9-3.5,5.2-6.2,6.8c-0.5,0.3-0.5,1,0,1.2c2.7,1.6,4.9,3.9,6.2,6.8c0.3,0.6,1,0.6,1.3,0
			c1.3-2.9,3.5-5.2,6.2-6.8c0.5-0.3,0.5-1,0-1.2c-2.7-1.6-4.9-3.9-6.2-6.8C16.5,15.2,15.7,15.2,15.4,15.7z"/>
		<path class="st3" d="M25.3,7.1c-0.9,2-2.4,3.7-4.3,4.8c-0.3,0.2-0.3,0.7,0,0.9c1.9,1.1,3.4,2.8,4.3,4.8c0.2,0.4,0.7,0.4,0.9,0
			c0.9-2,2.4-3.7,4.3-4.8c0.3-0.2,0.3-0.7,0-0.9c-1.9-1.1-3.4-2.8-4.3-4.8C26,6.7,25.5,6.7,25.3,7.1z"/>
		<g>
			<g>
				<rect x="30.7" y="22.8" class="st4" width="38.6" height="3.9"/>
			</g>
			<g>
				<polygon class="st4" points="69.3,69.1 30.7,69.1 30.7,66.5 36.4,65.2 63.6,65.2 69.3,66.5 				"/>
			</g>
			<g>
				<path class="st5" d="M55.8,31.5l-0.9-4.9H50h-4.9l-0.9,4.9c-0.4,2-2,3.5-4,3.7l0,0c-0.6,0.1-1.1,0.5-1.1,1.1l-3,23.4
					c-1.1,8.4,5.5,15.9,14,15.9l0,0c8.5,0,15.1-7.5,14-15.9l-3-23.4c-0.1-0.6-0.6-1.1-1.1-1.1l0,0C57.8,34.9,56.2,33.4,55.8,31.5z"
					/>
			</g>
			<g>
				<path class="st6" d="M44.8,79.4V58.8c0-0.7,0.6-1.3,1.3-1.3h7.7c0.7,0,1.3,0.6,1.3,1.3v20.5c0,0.7-0.6,1.3-1.3,1.3h-7.7
					C45.4,80.7,44.8,80.1,44.8,79.4z"/>
			</g>
			<g>
				<path class="st7" d="M56.8,67.2H43.2c-0.7,0-1.3-0.6-1.3-1.3V55.2c0-4.4,3.6-8.1,8.1-8.1l0,0c4.4,0,8.1,3.6,8.1,8.1v10.6
					C58.1,66.6,57.5,67.2,56.8,67.2z"/>
			</g>
			<g>
				<path class="st6" d="M58.1,24.7c0,4.4-3.6,8.1-8.1,8.1s-8.1-3.6-8.1-8.1s3.6-8.1,8.1-8.1C50,16.6,58.1,16.1,58.1,24.7z"/>
			</g>
			<g>
				<path class="st8" d="M50,29.5c-2.7,0-4.8-2.2-4.8-4.8s2.2-4.8,4.8-4.8c2.7,0,4.8,2.2,4.8,4.8S52.7,29.5,50,29.5z"/>
			</g>
			<g>
				<path class="st9" d="M71.3,27.9h-5.8c-0.7,0-1.3-0.6-1.3-1.3v-3.9c0-0.7,0.6-1.3,1.3-1.3h5.8c1.8,0,3.2,1.4,3.2,3.2l0,0
					C74.5,26.5,73,27.9,71.3,27.9z"/>
			</g>
			<g>
				<path class="st9" d="M28.7,27.9h5.8c0.7,0,1.3-0.6,1.3-1.3v-3.9c0-0.7-0.6-1.3-1.3-1.3h-5.8c-1.8,0-3.2,1.4-3.2,3.2l0,0
					C25.5,26.5,27,27.9,28.7,27.9z"/>
			</g>
			<g>
				<path class="st8" d="M50,18.9c-3.2,0-5.8,2.6-5.8,5.8s2.6,5.8,5.8,5.8s5.8-2.6,5.8-5.8S53.2,18.9,50,18.9z M50,28.5
					c-2.1,0-3.9-1.7-3.9-3.9s1.7-3.9,3.9-3.9c2.1,0,3.9,1.7,3.9,3.9S52.1,28.5,50,28.5z"/>
				<path class="st2" d="M56,20.9c0.7,1.1,1.1,2.4,1.1,3.8c0,3.9-3.2,7.1-7.1,7.1s-7.1-3.2-7.1-7.1s3.2-7.1,7.1-7.1
					c1.3,0,2.6,0.4,3.8,1.1C53.8,18.7,55.4,19.8,56,20.9z M54.8,17c-1.4-0.9-3.1-1.4-4.8-1.4c-4,0-7.3,2.6-8.5,6.1h-4.9
					c-0.4-0.8-1.1-1.3-2-1.3h-5.8c-2.3,0-4.2,1.9-4.2,4.2s1.9,4.2,4.2,4.2h5.8c0.9,0,1.7-0.5,2-1.3h4.9c0.4,1.2,1,2.3,1.9,3.2
					l-0.1,0.5c-0.3,1.6-1.6,2.8-3.2,2.9c-1.1,0.1-1.9,0.9-2,2l-3,23.4c-0.2,1.7-0.1,3.4,0.2,5l-4.8,1.1c-0.4,0.1-0.8,0.5-0.8,0.9
					v2.6c0,0.5,0.4,1,1,1h7c1.5,2.2,3.7,4,6.2,5.1v4.2c0,1.2,1,2.3,2.3,2.3h7.7c1.2,0,2.3-1,2.3-2.3v-4.2c2.6-1.1,4.7-2.9,6.2-5.1h7
					c0.5,0,1-0.4,1-1v-2.6c0-0.5-0.3-0.8-0.8-0.9l-4.8-1.1c0.3-1.6,0.4-3.3,0.2-5l-3-23.4c-0.1-1-1-1.9-2-2
					c-1.6-0.2-2.9-1.4-3.2-2.9l-0.1-0.5c0.8-0.9,1.5-2,1.9-3.2h4.9c0.4,0.8,1.1,1.3,2,1.3h5.8c2.3,0,4.2-1.9,4.2-4.2
					s-1.9-4.2-4.2-4.2h-5.8c-0.9,0-1.7,0.5-2,1.3h-4.9c-0.2-0.7-0.5-1.3-0.9-1.9C56.8,18.3,54.8,17,54.8,17z M34.5,26.9h-5.8
					c-1.2,0-2.3-1-2.3-2.3s1-2.3,2.3-2.3h5.8c0.2,0,0.3,0.1,0.3,0.3v3.9C34.9,26.8,34.7,26.9,34.5,26.9z M36.8,25.6v-1.9H41
					c0,0.3-0.1,0.6-0.1,1s0,0.6,0.1,1h-4.2V25.6z M31.6,68.1v-0.8l4.1-0.9c0.2,0.6,0.5,1.2,0.7,1.8L31.6,68.1L31.6,68.1z M53.9,79.7
					h-7.7c-0.2,0-0.3-0.1-0.3-0.3v-4.9l0,0v-6.4h8.4v11.2C54.2,79.5,54,79.7,53.9,79.7z M68.4,67.3v0.8h-4.9
					c0.3-0.6,0.5-1.2,0.7-1.8L68.4,67.3z M59.7,36.1c0.1,0,0.3,0.1,0.3,0.3l3,23.4c0.7,5.5-2.1,10.8-6.9,13.3v-4.9h0.6
					c1.2,0,2.3-1,2.3-2.3v-8.2c0-0.5-0.4-1.5-1-1.5c-0.5,0-1,0.8-1,1.4v8.3c0,0.2-0.1,0.3-0.3,0.3H43.2c-0.2,0-0.3-0.1-0.3-0.3V55.2
					c0-3.9,3.2-7.1,7.1-7.1s7.1,3.2,7.1,7.1v2.5c0,0.5,0.4,4.4,1,4.4c0.5,0,1-3.9,1-4.4v-2.5c0-5-4-9-9-9s-9,4-9,9v10.6
					c0,1.2,1,2.3,2.3,2.3H44V73c-4.8-2.5-7.6-7.8-6.9-13.3l3-23.4c0-0.1,0.1-0.3,0.3-0.3c2.2-0.2,4.1-1.8,4.7-3.9
					c1.4,1,3.1,1.5,5,1.5s3.6-0.6,5-1.5C55.6,34.3,57.5,35.9,59.7,36.1z M59,23.7h4.2v1.9H59c0-0.3,0.1-0.6,0.1-1
					C59,24.4,59,24,59,23.7z M71.3,26.9h-5.8c-0.2,0-0.3-0.1-0.3-0.3v-3.9c0-0.2,0.1-0.3,0.3-0.3h5.8c1.2,0,2.3,1,2.3,2.3
					S72.5,26.9,71.3,26.9z"/>
				<path class="st10" d="M53.9,42h-7.7c-0.9,0-1.6-0.7-1.6-1.6c0-0.9,0.7-1.6,1.6-1.6h7.7c0.9,0,1.6,0.7,1.6,1.6
					C55.5,41.2,54.8,42,53.9,42z"/>
			</g>
		</g>
		<path class="st9" d="M98.2,88.1H1.8c-0.5,0-1-0.4-1-1v-3.8c0-0.5,0.4-1,1-1h96.4c0.5,0,1,0.4,1,1v3.8
			C99.2,87.7,98.7,88.1,98.2,88.1z"/>
		<path class="st2" d="M98.2,89H1.8c-1,0-1.8-0.8-1.8-1.8v-3.8c0-1,0.8-1.8,1.8-1.8h96.4c1,0,1.8,0.8,1.8,1.8v3.8
			C100,88.2,99.2,89,98.2,89z M1.8,83.2c-0.1,0-0.2,0.1-0.2,0.2v3.8c0,0.1,0.1,0.2,0.2,0.2h96.4c0.1,0,0.2-0.1,0.2-0.2v-3.8
			c0-0.1-0.1-0.2-0.2-0.2H1.8z"/>
	</g>
</g>
</svg>
