<?xml version="1.0" encoding="utf-8"?>
<!-- Generator: Adobe Illustrator 22.0.0, SVG Export Plug-In . SVG Version: 6.00 Build 0)  -->
<svg version="1.1" id="Layer_1" xmlns="http://www.w3.org/2000/svg" xmlns:xlink="http://www.w3.org/1999/xlink" x="0px" y="0px"
	 viewBox="0 0 100 100" style="enable-background:new 0 0 100 100;" xml:space="preserve">
<style type="text/css">
	.st0{fill:#F2F2F2;}
	.st1{fill:#7ACDD2;}
	.st2{fill:#F8CECD;}
	.st3{fill:#4464AE;}
	.st4{fill:#CDCFCE;}
	.st5{fill:#4B70B6;}
	.st6{fill:#F6A6A7;}
	.st7{fill:#80CFD9;}
	.st8{fill:#FDE784;}
	.st9{fill:#E0E9F6;}
</style>
<g>
	<path class="st0" d="M1.1,35.1C0.6,26.7,3.8,18.5,10,12.8c7.6-7,21-14.1,43.6-12.6c0,0,50,5.2,45.1,42.4c-0.2,1.2-0.4,2.3-0.7,3.4
		c-2.6,9.7-17.8,62.8-38.9,52.7c0,0-32.7-14.4-50.5-38.6C8.5,60.2,2.1,51.8,1.1,35.1z"/>
	<g>
		<g>
			<polygon class="st1" points="90.4,69 90.4,83.9 83.3,83.9 83.3,72.5 72.7,72.5 72.7,69 86,69 			"/>
			<rect x="86" y="14" class="st2" width="4.4" height="55"/>
			<polygon class="st1" points="27.3,69 27.3,72.5 16.7,72.5 16.7,83.9 9.6,83.9 9.6,69 14,69 			"/>
			<rect x="9.6" y="14" class="st2" width="4.4" height="55"/>
			<path class="st3" d="M9.6,85.1h7.1c0.7,0,1.2-0.6,1.2-1.2V73.8h9.4c0.7,0,1.2-0.5,1.2-1.2l0,0V69c0-0.7-0.5-1.2-1.2-1.2l0,0H15.2
				V14c0-0.7-0.6-1.2-1.3-1.2H9.6c-0.7,0-1.3,0.6-1.3,1.2v69.9C8.3,84.6,8.9,85.1,9.6,85.1z M10.8,15.3h2v52.5h-2V15.3z M10.8,70.2
				h15.3v1.1h-9.4c-0.7,0-1.2,0.6-1.2,1.2v10.1h-4.6V70.2H10.8z"/>
			<path class="st3" d="M71.5,69v3.5c0,0.7,0.5,1.2,1.2,1.2l0,0h9.4v10.1c0,0.7,0.6,1.2,1.2,1.2h7.1c0.7,0,1.3-0.6,1.3-1.2V14
				c0-0.7-0.6-1.2-1.3-1.2H86c-0.7,0-1.3,0.6-1.3,1.2v53.7h-12C72,67.8,71.5,68.3,71.5,69L71.5,69z M87.2,15.3h2v52.5h-2V15.3z
				 M73.9,70.2h15.3v12.4h-4.6V72.5c0-0.7-0.6-1.2-1.2-1.2H74v-1.1H73.9z"/>
		</g>
		<g>
			<g>
				<rect x="30.7" y="22.8" class="st4" width="38.6" height="3.9"/>
			</g>
			<g>
				<polygon class="st4" points="69.3,69.1 30.7,69.1 30.7,66.5 36.4,65.2 63.6,65.2 69.3,66.5 				"/>
			</g>
			<g>
				<path class="st5" d="M55.8,31.5l-0.9-4.9H50h-4.9l-0.9,4.9c-0.4,2-2,3.5-4,3.7l0,0c-0.6,0.1-1.1,0.5-1.1,1.1l-3,23.4
					c-1.1,8.4,5.5,15.9,14,15.9l0,0c8.5,0,15.1-7.5,14-15.9l-3-23.4c-0.1-0.6-0.6-1.1-1.1-1.1l0,0C57.8,34.9,56.2,33.4,55.8,31.5z"
					/>
			</g>
			<g>
				<path class="st6" d="M44.8,79.4V58.8c0-0.7,0.6-1.3,1.3-1.3h7.7c0.7,0,1.3,0.6,1.3,1.3v20.5c0,0.7-0.6,1.3-1.3,1.3h-7.7
					C45.4,80.7,44.8,80.1,44.8,79.4z"/>
			</g>
			<g>
				<path class="st7" d="M56.8,67.2H43.2c-0.7,0-1.3-0.6-1.3-1.3V55.2c0-4.4,3.6-8.1,8.1-8.1l0,0c4.4,0,8.1,3.6,8.1,8.1v10.6
					C58.1,66.6,57.5,67.2,56.8,67.2z"/>
			</g>
			<g>
				<path class="st6" d="M58.1,24.7c0,4.4-3.6,8.1-8.1,8.1s-8.1-3.6-8.1-8.1s3.6-8.1,8.1-8.1C50,16.6,58.1,16.1,58.1,24.7z"/>
			</g>
			<g>
				<path class="st8" d="M50,29.5c-2.7,0-4.8-2.2-4.8-4.8s2.2-4.8,4.8-4.8c2.7,0,4.8,2.2,4.8,4.8S52.7,29.5,50,29.5z"/>
			</g>
			<g>
				<path class="st9" d="M71.3,27.9h-5.8c-0.7,0-1.3-0.6-1.3-1.3v-3.9c0-0.7,0.6-1.3,1.3-1.3h5.8c1.8,0,3.2,1.4,3.2,3.2l0,0
					C74.5,26.5,73,27.9,71.3,27.9z"/>
			</g>
			<g>
				<path class="st9" d="M28.7,27.9h5.8c0.7,0,1.3-0.6,1.3-1.3v-3.9c0-0.7-0.6-1.3-1.3-1.3h-5.8c-1.8,0-3.2,1.4-3.2,3.2l0,0
					C25.5,26.5,27,27.9,28.7,27.9z"/>
			</g>
			<g>
				<path class="st8" d="M50,18.9c-3.2,0-5.8,2.6-5.8,5.8s2.6,5.8,5.8,5.8s5.8-2.6,5.8-5.8S53.2,18.9,50,18.9z M50,28.5
					c-2.1,0-3.9-1.7-3.9-3.9s1.7-3.9,3.9-3.9c2.1,0,3.9,1.7,3.9,3.9S52.1,28.5,50,28.5z"/>
				<path class="st3" d="M56,20.9c0.7,1.1,1.1,2.4,1.1,3.8c0,3.9-3.2,7.1-7.1,7.1s-7.1-3.2-7.1-7.1s3.2-7.1,7.1-7.1
					c1.3,0,2.6,0.4,3.8,1.1C53.8,18.7,55.4,19.8,56,20.9z M54.8,17c-1.4-0.9-3.1-1.4-4.8-1.4c-4,0-7.3,2.6-8.5,6.1h-4.9
					c-0.4-0.8-1.1-1.3-2-1.3h-5.8c-2.3,0-4.2,1.9-4.2,4.2s1.9,4.2,4.2,4.2h5.8c0.9,0,1.7-0.5,2-1.3h4.9c0.4,1.2,1,2.3,1.9,3.2
					l-0.1,0.5c-0.3,1.6-1.6,2.8-3.2,2.9c-1.1,0.1-1.9,0.9-2,2l-3,23.4c-0.2,1.7-0.1,3.4,0.2,5l-4.8,1.1c-0.4,0.1-0.8,0.5-0.8,0.9
					v2.6c0,0.5,0.4,1,1,1h7c1.5,2.2,3.7,4,6.2,5.1v4.2c0,1.2,1,2.3,2.3,2.3h7.7c1.2,0,2.3-1,2.3-2.3v-4.2c2.6-1.1,4.7-2.9,6.2-5.1h7
					c0.5,0,1-0.4,1-1v-2.6c0-0.5-0.3-0.8-0.8-0.9l-4.8-1.1c0.3-1.6,0.4-3.3,0.2-5l-3-23.4c-0.1-1-1-1.9-2-2
					c-1.6-0.2-2.9-1.4-3.2-2.9l-0.1-0.5c0.8-0.9,1.5-2,1.9-3.2h4.9c0.4,0.8,1.1,1.3,2,1.3h5.8c2.3,0,4.2-1.9,4.2-4.2
					s-1.9-4.2-4.2-4.2h-5.8c-0.9,0-1.7,0.5-2,1.3h-4.9c-0.2-0.7-0.5-1.3-0.9-1.9C56.8,18.3,54.8,17,54.8,17z M34.5,26.9h-5.8
					c-1.2,0-2.3-1-2.3-2.3s1-2.3,2.3-2.3h5.8c0.2,0,0.3,0.1,0.3,0.3v3.9C34.9,26.8,34.7,26.9,34.5,26.9z M36.8,25.6v-1.9H41
					c0,0.3-0.1,0.6-0.1,1s0,0.6,0.1,1h-4.2V25.6z M31.6,68.1v-0.8l4.1-0.9c0.2,0.6,0.5,1.2,0.7,1.8L31.6,68.1L31.6,68.1z M53.9,79.7
					h-7.7c-0.2,0-0.3-0.1-0.3-0.3v-4.9l0,0v-6.4h8.4v11.2C54.2,79.5,54,79.7,53.9,79.7z M68.4,67.3v0.8h-4.9
					c0.3-0.6,0.5-1.2,0.7-1.8L68.4,67.3z M59.7,36.1c0.1,0,0.3,0.1,0.3,0.3l3,23.4c0.7,5.5-2.1,10.8-6.9,13.3v-4.9h0.6
					c1.2,0,2.3-1,2.3-2.3v-8.2c0-0.5-0.4-1.5-1-1.5c-0.5,0-1,0.8-1,1.4v8.3c0,0.2-0.1,0.3-0.3,0.3H43.2c-0.2,0-0.3-0.1-0.3-0.3V55.2
					c0-3.9,3.2-7.1,7.1-7.1s7.1,3.2,7.1,7.1v2.5c0,0.5,0.4,4.4,1,4.4c0.5,0,1-3.9,1-4.4v-2.5c0-5-4-9-9-9s-9,4-9,9v10.6
					c0,1.2,1,2.3,2.3,2.3H44V73c-4.8-2.5-7.6-7.8-6.9-13.3l3-23.4c0-0.1,0.1-0.3,0.3-0.3c2.2-0.2,4.1-1.8,4.7-3.9
					c1.4,1,3.1,1.5,5,1.5s3.6-0.6,5-1.5C55.6,34.3,57.5,35.9,59.7,36.1z M59,23.7h4.2v1.9H59c0-0.3,0.1-0.6,0.1-1
					C59,24.4,59,24,59,23.7z M71.3,26.9h-5.8c-0.2,0-0.3-0.1-0.3-0.3v-3.9c0-0.2,0.1-0.3,0.3-0.3h5.8c1.2,0,2.3,1,2.3,2.3
					S72.5,26.9,71.3,26.9z"/>
				<path class="st2" d="M53.9,42h-7.7c-0.9,0-1.6-0.7-1.6-1.6c0-0.9,0.7-1.6,1.6-1.6h7.7c0.9,0,1.6,0.7,1.6,1.6
					C55.5,41.2,54.8,42,53.9,42z"/>
			</g>
		</g>
		<path class="st9" d="M98.2,88.1H1.8c-0.5,0-1-0.4-1-1v-3.8c0-0.5,0.4-1,1-1h96.4c0.5,0,1,0.4,1,1v3.8
			C99.2,87.7,98.7,88.1,98.2,88.1z"/>
		<path class="st3" d="M98.2,89H1.8c-1,0-1.8-0.8-1.8-1.8v-3.8c0-1,0.8-1.8,1.8-1.8h96.4c1,0,1.8,0.8,1.8,1.8v3.8
			C100,88.2,99.2,89,98.2,89z M1.8,83.2c-0.1,0-0.2,0.1-0.2,0.2v3.8c0,0.1,0.1,0.2,0.2,0.2h96.4c0.1,0,0.2-0.1,0.2-0.2v-3.8
			c0-0.1-0.1-0.2-0.2-0.2H1.8z"/>
	</g>
</g>
</svg>
