<?xml version="1.0" encoding="utf-8"?>
<!-- Generator: Adobe Illustrator 22.0.0, SVG Export Plug-In . SVG Version: 6.00 Build 0)  -->
<svg version="1.1" id="Layer_1" xmlns="http://www.w3.org/2000/svg" xmlns:xlink="http://www.w3.org/1999/xlink" x="0px" y="0px"
	 viewBox="0 0 100 100" style="enable-background:new 0 0 100 100;" xml:space="preserve">
<style type="text/css">
	.st0{fill:#F2F2F2;}
	.st1{fill:#4B70B6;}
	.st2{fill:#4464AE;}
	.st3{fill:#F6A6A7;}
	.st4{fill:#E0E9F6;}
	.st5{fill:#7ACDD2;}
	.st6{fill:#FDE890;}
	.st7{fill:#A8C5E7;}
	.st8{fill:#F8CECD;}
</style>
<g>
	<path class="st0" d="M1.1,35.1C0.6,26.7,3.8,18.5,10,12.8c7.6-7,21-14.1,43.6-12.6c0,0,50,5.2,45.1,42.4c-0.2,1.2-0.4,2.3-0.7,3.4
		c-2.6,9.7-17.8,62.8-38.9,52.7c0,0-32.7-14.4-50.5-38.6C8.5,60.2,2.1,51.8,1.1,35.1z"/>
	<g>
		<path class="st1" d="M49,7.6c-18.8,0-34,15.2-34,34s15.2,34,34,34s34-15.2,34-34S67.8,7.6,49,7.6z M49,61.2
			c-10.9,0-19.7-8.8-19.7-19.7S38.2,21.8,49,21.8s19.7,8.8,19.7,19.7S59.9,61.2,49,61.2z"/>
		<path class="st2" d="M49,76.1c-19.1,0-34.6-15.5-34.6-34.6c0-19,15.5-34.6,34.6-34.6s34.6,15.5,34.6,34.6S68.1,76.1,49,76.1z
			 M49,8.2c-18.4,0-33.3,15-33.3,33.3c0,18.4,15,33.3,33.3,33.3s33.3-15,33.3-33.3C82.4,23.2,67.4,8.2,49,8.2z M49,61.9
			c-11.2,0-20.3-9.1-20.3-20.3S37.8,21.2,49,21.2s20.3,9.1,20.3,20.3C69.4,52.8,60.2,61.9,49,61.9z M49,22.5c-10.5,0-19,8.5-19,19
			s8.5,19.1,19,19.1S68.1,52,68.1,41.5S59.5,22.5,49,22.5z"/>
		<path class="st3" d="M68.7,41.5c0-1.2-0.1-2.4-0.3-3.5l-15-0.9l-0.9-15c-1.2-0.2-2.3-0.3-3.5-0.3s-2.4,0.1-3.5,0.3l-0.9,15
			l-15,0.9c-0.2,1.2-0.3,2.3-0.3,3.5s0.1,2.4,0.3,3.5l11.1,0.6l-6,9.4c1.6,1.7,3.6,3.2,5.8,4.2l8.6-10.4l8.6,10.3
			c2.2-1.1,4.1-2.5,5.8-4.3l-6-9.3l11-0.6C68.6,43.9,68.7,42.8,68.7,41.5z"/>
		<path class="st2" d="M40.5,59.9c-0.1,0-0.2,0-0.3-0.1c-2.2-1.1-4.2-2.6-6-4.4c-0.2-0.2-0.2-0.5-0.1-0.8l5.5-8.4l-10-0.6
			c-0.3,0-0.5-0.2-0.6-0.5c-0.2-1.2-0.3-2.5-0.3-3.7s0.1-2.4,0.3-3.7c0.1-0.3,0.3-0.5,0.6-0.5L44,36.5l0.8-14.4
			c0-0.3,0.2-0.5,0.5-0.6c2.4-0.4,4.9-0.4,7.3,0c0.3,0.1,0.5,0.3,0.5,0.6L54,36.5l14.4,0.8c0.3,0,0.5,0.2,0.6,0.5
			c0.2,1.2,0.3,2.5,0.3,3.7s-0.1,2.4-0.3,3.7c-0.1,0.3-0.3,0.5-0.6,0.5l-9.9,0.6l5.4,8.3c0.2,0.2,0.1,0.6-0.1,0.8
			c-1.7,1.8-3.7,3.3-5.9,4.4c-0.3,0.1-0.6,0.1-0.8-0.2L49,49.9l-8,9.8C40.8,59.8,40.7,59.9,40.5,59.9z M35.5,55
			c1.4,1.4,3,2.6,4.8,3.5l8.3-10c0.2-0.3,0.7-0.3,1,0l8.3,9.9c1.8-0.9,3.4-2.1,4.8-3.5l-5.8-8.8c-0.1-0.2-0.1-0.4,0-0.6
			c0.1-0.2,0.3-0.3,0.5-0.3l10.5-0.6c0.2-1,0.2-2,0.2-2.9c0-1-0.1-2-0.2-2.9L53.4,38c-0.3,0-0.6-0.3-0.6-0.6L52,22.7
			c-2-0.3-3.9-0.3-5.9,0l-0.8,14.5c0,0.3-0.3,0.6-0.6,0.6l-14.5,0.8c-0.2,1-0.2,2-0.2,2.9c0,1,0.1,2,0.2,2.9L40.8,45
			c0.2,0,0.4,0.1,0.5,0.3s0.1,0.4,0,0.6L35.5,55z M68.4,45.1L68.4,45.1L68.4,45.1z"/>
		<path class="st4" d="M49,64.6c-12.7,0-23-10.3-23-23.1c0-12.7,10.3-23,23-23s23.1,10.3,23.1,23.1C72.1,54.3,61.7,64.6,49,64.6z
			 M49,22.5c-10.5,0-19,8.5-19,19s8.6,19.1,19.1,19.1S68.2,52,68.2,41.5C68.1,31,59.5,22.5,49,22.5z"/>
		<path class="st3" d="M58.5,41.5c0,5.3-4.3,9.5-9.5,9.5s-9.5-4.3-9.5-9.5c0-5.3,4.3-9.5,9.5-9.5S58.5,36.3,58.5,41.5z"/>
		<path class="st5" d="M55.1,41.5c0,3.4-2.7,6.1-6.1,6.1s-6.1-2.7-6.1-6.1c0-3.4,2.7-6.1,6.1-6.1S55.1,38.2,55.1,41.5z"/>
		<path class="st2" d="M49,51.7c-5.6,0-10.1-4.6-10.1-10.1c0-5.6,4.6-10.1,10.1-10.1c5.6,0,10.1,4.6,10.1,10.1
			C59.2,47.1,54.6,51.7,49,51.7z M49,32.7c-4.9,0-8.9,4-8.9,8.9s4,8.9,8.9,8.9s8.9-4,8.9-8.9S53.9,32.7,49,32.7z"/>
		<path class="st2" d="M49,48.3c-3.7,0-6.7-3-6.7-6.7s3-6.7,6.7-6.7s6.7,3,6.7,6.7C55.8,45.3,52.7,48.3,49,48.3z M49,36.1
			c-3,0-5.5,2.5-5.5,5.5s2.5,5.5,5.5,5.5s5.5-2.5,5.5-5.5C54.5,38.5,52,36.1,49,36.1z"/>
		<path class="st2" d="M49,65.2c-13.1,0-23.7-10.6-23.7-23.7S36,17.9,49,17.9s23.7,10.6,23.7,23.7S62.1,65.2,49,65.2z M49,19.1
			c-12.4,0-22.4,10.1-22.4,22.4S36.7,64,49,64s22.4-10.1,22.4-22.4S61.4,19.1,49,19.1z M49,61.2c-10.9,0-19.7-8.8-19.7-19.7
			S38.2,21.8,49,21.8s19.7,8.8,19.7,19.7S59.9,61.2,49,61.2z M49,23.1c-10.2,0-18.4,8.3-18.4,18.4S38.9,60,49,60s18.4-8.3,18.4-18.4
			S59.2,23.1,49,23.1z"/>
		<path class="st6" d="M66.2,56.7l5.4-3.5c1.7-1.1,2.8-3,2.9-5.1l0.2-5.8h10.5l3.7,18c0,0.2,0.1,0.4,0.1,0.6v15.7
			c0,3.2-2.6,5.7-5.7,5.7H67.5c-3.2,0-5.7-2.6-5.7-5.7v-12C61.8,61.5,63.4,58.5,66.2,56.7z"/>
		<g>
			<path class="st7" d="M68.2,59.9l5.4-3.5c1.3-0.9,2.4-2,3.2-3.3c0.3-0.5,0.8-0.8,1.4-0.8H82c0.8,0,1.4,0.5,1.6,1.3l1.4,7
				c0.1,0.3,0.1,0.7,0.1,1v15.2c0,1.1-0.9,1.9-1.9,1.9H67.5c-1.1,0-1.9-0.9-1.9-1.9v-12C65.6,62.8,66.6,61,68.2,59.9z"/>
			<path class="st7" d="M63.5,29.7h1.3c0.4,0,0.7-0.3,0.7-0.7c0-0.4-0.3-0.7-0.7-0.7h-1.3c-0.4,0-0.7,0.3-0.7,0.7
				C62.8,29.4,63.1,29.7,63.5,29.7z"/>
			<path class="st7" d="M53.9,29.1c0-0.4,0.3-0.7,0.7-0.7h2.2c0.4,0,0.7,0.3,0.7,0.7c0,0.4-0.3,0.7-0.7,0.7h-2.2
				C54.2,29.7,53.9,29.4,53.9,29.1z M58.3,29.1c0-0.4,0.3-0.7,0.7-0.7h2.2c0.4,0,0.7,0.3,0.7,0.7c0,0.4-0.3,0.7-0.7,0.7H59
				C58.7,29.7,58.3,29.4,58.3,29.1z"/>
			<path class="st7" d="M64.8,29.7c0.2,0,0.5-0.1,0.6-0.4c0.2-0.3,0-0.7-0.3-0.9l-1.2-0.6c-0.3-0.2-0.7,0-0.9,0.3s0,0.7,0.3,0.9
				l1.2,0.6C64.6,29.7,64.7,29.7,64.8,29.7z"/>
			<path class="st7" d="M61.4,28l-2-1c-0.3-0.2-0.5-0.6-0.3-0.9s0.6-0.5,0.9-0.3l2,1c0.3,0.2,0.5,0.6,0.3,0.9
				c-0.1,0.2-0.4,0.4-0.6,0.4C61.6,28.1,61.4,28.1,61.4,28z M57.4,26l-2-1c-0.3-0.2-0.5-0.6-0.3-0.9s0.6-0.5,0.9-0.3l2,1
				c0.3,0.2,0.5,0.6,0.3,0.9c-0.1,0.2-0.4,0.4-0.6,0.4C57.6,26.1,57.5,26.1,57.4,26z"/>
			<path class="st7" d="M63.6,30.3c0.1,0,0.2,0,0.3-0.1l1.2-0.6c0.3-0.2,0.5-0.6,0.3-0.9s-0.6-0.5-0.9-0.3L63.3,29
				c-0.3,0.2-0.4,0.6-0.3,1C63.2,30.2,63.4,30.3,63.6,30.3z"/>
			<path class="st7" d="M55.7,34.4c0.1,0,0.2,0,0.3-0.1l2-1c0.3-0.2,0.5-0.6,0.3-0.9c-0.2-0.3-0.6-0.5-0.9-0.3l-2,1
				c-0.3,0.2-0.5,0.6-0.3,0.9C55.2,34.3,55.5,34.4,55.7,34.4z"/>
			<path class="st7" d="M59.7,32.4c0.1,0,0.2,0,0.3-0.1l2-1c0.3-0.2,0.5-0.6,0.3-0.9s-0.6-0.5-0.9-0.3l-2,1
				c-0.3,0.2-0.5,0.6-0.3,0.9C59.2,32.2,59.4,32.4,59.7,32.4z"/>
		</g>
		<path class="st4" d="M70.7,26.1c0-0.3,0.2-0.5,0.4-0.6l12.5-3c0.3-0.1,0.6,0,0.8,0.3l7,9.4c0.4,0.5,0.1,1.3-0.5,1.3h-6.6l0,0
			l0.8,5.1H74.3l0.8-5.1v-0.7l-4-0.8c-0.3-0.1-0.5-0.3-0.5-0.6L70.7,26.1z"/>
		<path class="st2" d="M85,39.2H74.3c-0.2,0-0.4-0.1-0.5-0.2c-0.1-0.1-0.2-0.3-0.1-0.5l0.8-5v-0.1L71,32.5c-0.6-0.1-1-0.6-1-1.2
			v-5.2c0-0.6,0.4-1.1,0.9-1.2l12.9-3.1c0.2-0.1,0.5,0,0.7,0.2l7.3,9.8c0.3,0.4,0.4,1,0.1,1.5c-0.2,0.5-0.7,0.7-1.2,0.7h-5.9
			l0.7,4.4c0,0.2,0,0.4-0.1,0.5C85.4,39.1,85.2,39.2,85,39.2z M75.1,37.9h9.2l-0.7-4.4v-0.1c0-0.3,0.3-0.6,0.6-0.6h6.6
			c0,0,0,0,0.1-0.1c0,0,0-0.1,0-0.2l-7-9.4l-12.5,3l0,0v5.2l0,0l4,0.8c0.3,0.1,0.5,0.3,0.5,0.6v0.7v0.1L75.1,37.9z M70.7,26.1
			L70.7,26.1L70.7,26.1z"/>
		<path class="st7" d="M74.1,42.3h11.1c0.7,0,1.2-0.5,1.2-1.2v-1.4c0-0.7-0.5-1.2-1.2-1.2H74.1c-0.7,0-1.2,0.5-1.2,1.2v1.4
			C72.9,41.8,73.4,42.3,74.1,42.3z"/>
		<path class="st2" d="M85.2,42.9H74.1c-1,0-1.8-0.8-1.8-1.8v-1.4c0-1,0.8-1.8,1.8-1.8h11.1c1,0,1.8,0.8,1.8,1.8v1.4
			C87.1,42.1,86.2,42.9,85.2,42.9z M74.1,39.2c-0.3,0-0.6,0.2-0.6,0.6v1.4c0,0.3,0.2,0.6,0.6,0.6h11.1c0.3,0,0.6-0.2,0.6-0.6v-1.4
			c0-0.3-0.2-0.6-0.6-0.6H74.1z"/>
		<path class="st2" d="M85.2,42.9H74.1c-1,0-1.8-0.8-1.8-1.8v-1.4c0-1,0.8-1.8,1.8-1.8h11.1c1,0,1.8,0.8,1.8,1.8v1.4
			C87.1,42.1,86.2,42.9,85.2,42.9z M74.1,39.2c-0.3,0-0.6,0.2-0.6,0.6v1.4c0,0.3,0.2,0.6,0.6,0.6h11.1c0.3,0,0.6-0.2,0.6-0.6v-1.4
			c0-0.3-0.2-0.6-0.6-0.6H74.1z"/>
		<path class="st2" d="M83.2,83H67.5c-3.5,0-6.3-2.8-6.3-6.3v-12c0-3.5,1.7-6.7,4.7-8.5l5.4-3.5c1.6-1,2.6-2.7,2.6-4.6l0.2-5.8
			c0-0.3,0.3-0.6,0.6-0.6h10.5c0.3,0,0.6,0.2,0.6,0.5l3.7,18c0.1,0.3,0.1,0.5,0.1,0.8v15.7C89.6,80.2,86.7,83,83.2,83z M66.5,57.2
			c-2.6,1.6-4.1,4.4-4.1,7.5v12c0,2.8,2.3,5.1,5.1,5.1h15.8c2.8,0,5.1-2.3,5.1-5.1V61c0-0.2,0-0.3-0.1-0.5L84.7,43h-9.3l-0.2,5.2
			c-0.1,2.3-1.3,4.4-3.2,5.6L66.5,57.2z"/>
		<path class="st6" d="M20.4,13.5c-1.1,2.3-2.8,4.3-5.1,5.6c-0.4,0.2-0.4,0.8,0,1c2.2,1.3,4,3.2,5.1,5.6c0.2,0.5,0.9,0.5,1.1,0
			c1.1-2.3,2.8-4.3,5.1-5.6c0.4-0.2,0.4-0.8,0-1c-2.2-1.3-4-3.2-5.1-5.6C21.3,13.1,20.6,13.1,20.4,13.5z"/>
		<path class="st6" d="M28.5,6.4c-0.7,1.6-2,3-3.5,3.9c-0.3,0.2-0.3,0.6,0,0.7c1.5,0.9,2.8,2.3,3.5,3.9c0.1,0.3,0.6,0.3,0.7,0
			c0.7-1.6,2-3,3.5-3.9c0.3-0.2,0.3-0.6,0-0.7c-1.5-0.9-2.8-2.3-3.5-3.9C29.1,6.1,28.6,6.1,28.5,6.4z"/>
		<path class="st5" d="M71.7,32l-1.3,5.2c-0.1,0.6,0.2,1.2,0.7,1.3l0.3,0.1c0.5,0.2,1-0.2,1.2-0.8l1.3-5.3L71.7,32z"/>
		<path class="st2" d="M71.7,39.3c-0.1,0-0.3,0-0.4-0.1L71,39.1c-0.8-0.3-1.3-1.2-1.1-2.1l1.3-5.2c0.1-0.3,0.4-0.5,0.7-0.5l2.2,0.5
			c0.2,0,0.3,0.1,0.4,0.3c0.1,0.1,0.1,0.3,0.1,0.5L73.3,38c-0.1,0.5-0.4,0.9-0.8,1.1C72.3,39.2,72,39.3,71.7,39.3z M72.2,32.8
			l-1.1,4.6c-0.1,0.2,0.1,0.5,0.2,0.6l0.3,0.1c0.1,0,0.1,0,0.2,0c0.1-0.1,0.2-0.2,0.2-0.3l1.1-4.7L72.2,32.8z"/>
		<path class="st8" d="M70.7,26.3L67,27.2c-0.3,0.1-0.4,0.3-0.4,0.6v2.1c0,0.3,0.2,0.6,0.5,0.6l3.7,0.8L70.7,26.3z"/>
		<path class="st2" d="M70.7,31.9L70.7,31.9l-3.8-0.8c-0.6-0.1-1-0.6-1-1.2v-2.1c0-0.6,0.4-1.1,0.9-1.2l3.7-0.9c0.2,0,0.4,0,0.5,0.1
			c0.2,0.1,0.2,0.3,0.2,0.5v5c0,0.2-0.1,0.4-0.2,0.5C71,31.8,70.8,31.9,70.7,31.9z M67.2,29.8l2.9,0.6V27l-2.9,0.7V29.8L67.2,29.8z"
			/>
		<path class="st4" d="M98.2,88.1H1.8c-0.5,0-1-0.4-1-1v-3.8c0-0.5,0.4-1,1-1h96.4c0.5,0,1,0.4,1,1v3.8
			C99.2,87.7,98.7,88.1,98.2,88.1z"/>
		<path class="st2" d="M98.2,89H1.8c-1,0-1.8-0.8-1.8-1.8v-3.8c0-1,0.8-1.8,1.8-1.8h96.4c1,0,1.8,0.8,1.8,1.8v3.8
			C100,88.2,99.2,89,98.2,89z M1.8,83.2c-0.1,0-0.2,0.1-0.2,0.2v3.8c0,0.1,0.1,0.2,0.2,0.2h96.4c0.1,0,0.2-0.1,0.2-0.2v-3.8
			c0-0.1-0.1-0.2-0.2-0.2H1.8z"/>
	</g>
</g>
</svg>
