<?xml version="1.0" encoding="utf-8"?>
<!-- Generator: Adobe Illustrator 22.0.0, SVG Export Plug-In . SVG Version: 6.00 Build 0)  -->
<svg version="1.1" id="Layer_1" xmlns="http://www.w3.org/2000/svg" xmlns:xlink="http://www.w3.org/1999/xlink" x="0px" y="0px"
	 viewBox="0 0 100 100" style="enable-background:new 0 0 100 100;" xml:space="preserve">
<style type="text/css">
	.st0{fill:#F2F2F2;}
	.st1{fill:#A4C9FF;}
	.st2{fill:#3762CC;}
	.st3{fill:#4671C6;}
	.st4{fill:#E0EBFC;}
	.st5{fill:#FFEA92;}
	.st6{fill:#6BDDDD;}
	.st7{fill:#F9A7A7;}
	.st8{fill:#F9CFCF;}
</style>
<g>
	<path class="st0" d="M1.1,35.1C0.6,26.7,3.8,18.5,10,12.8c7.6-7,21-14.1,43.6-12.6c0,0,50,5.2,45.1,42.4c-0.2,1.2-0.4,2.3-0.7,3.4
		c-2.6,9.7-17.8,62.8-38.9,52.7c0,0-32.7-14.4-50.5-38.6C8.5,60.2,2.1,51.8,1.1,35.1z"/>
	<g>
		<path class="st1" d="M11.1,72.7c-1.3,0-2.4-1.1-2.4-2.4v-5.9c0-1.3,1.1-2.4,2.4-2.4h0.1V48.8c0-2.2,1.8-4,4-4h3.6l0,0l1.1-2.8
			c-0.7,0.3-1.4,0.6-2.1,1.1c0-0.1-0.1-0.1-0.1-0.2c-2.4-3.3-7-4-10.3-1.6s-4,7-1.6,10.3c0,0.1,0.1,0.1,0.1,0.1l0,0
			C2.1,54.5,1.4,59.6,4,63.2c-0.1,0-0.1,0.1-0.2,0.1c-3.3,2.4-4,7-1.6,10.3c2.4,3.3,7,4,10.3,1.6c0.1,0,0.1-0.1,0.2-0.1l0,0
			c1.9,2.6,5,3.7,7.9,3.2v-5.7L11.1,72.7L11.1,72.7z"/>
		<path class="st2" d="M19.3,79.3c-2.6,0-5.1-1.1-6.8-3.1c-3.6,2.3-8.4,1.4-11-2.1C-1,70.7-0.3,65.8,2.9,63
			c-2.2-3.7-1.5-8.6,1.8-11.4c-1-1.7-1.5-3.6-1.2-5.6c0.3-2.2,1.5-4.1,3.3-5.4c3.5-2.6,8.3-1.9,11.1,1.3c0.5-0.3,1.1-0.6,1.6-0.8
			c0.3-0.1,0.6,0,0.9,0.2c0.2,0.2,0.3,0.6,0.2,0.9l-1,2.6c0,0.4-0.4,0.7-0.8,0.7h-3.6c-1.8,0-3.2,1.4-3.2,3.2V62
			c0,0.5-0.4,0.8-0.8,0.8h-0.1c-0.8,0-1.5,0.7-1.5,1.5v5.9c0,0.8,0.7,1.5,1.5,1.5h9.6c0.5,0,0.8,0.4,0.8,0.8v5.7
			c0,0.4-0.3,0.7-0.7,0.8C20.3,79.3,19.8,79.3,19.3,79.3z M13.4,74.7c1.5,2,3.9,3.1,6.4,3v-4.2h-8.7c-1.8,0-3.2-1.4-3.2-3.2v-5.9
			c0-1.5,1-2.7,2.4-3.1V48.8c0-2.7,2.2-4.8,4.8-4.8h3l0.1-0.3c0,0-0.1,0-0.1,0.1c-0.2,0.1-0.4,0.2-0.6,0.1c-0.2,0-0.4-0.2-0.5-0.3
			c0,0,0-0.1-0.1-0.1v-0.1c-2.1-2.9-6.3-3.5-9.2-1.4c-1.4,1-2.3,2.6-2.6,4.3c-0.3,1.7,0.2,3.5,1.2,4.9l0,0l0.1,0.1
			c0.1,0.2,0.2,0.4,0.2,0.6c0,0.2-0.2,0.4-0.3,0.5H6.2c-3.2,2.4-4,7-1.6,10.3c0.1,0.2,0.2,0.4,0.1,0.6c0,0.2-0.2,0.4-0.3,0.5
			c0,0-0.1,0-0.1,0.1l0,0c-2.9,2.1-3.5,6.3-1.4,9.2c2.1,2.9,6.3,3.5,9.2,1.4l0,0l0.1-0.1c0.2-0.1,0.4-0.2,0.6-0.2
			C13.1,74.3,13.3,74.5,13.4,74.7C13.4,74.6,13.4,74.7,13.4,74.7z"/>
		<path class="st1" d="M91.4,41.6c-0.1,0-0.1,0-0.2,0l0,0c-0.2-3.6-2.6-6.5-5.9-7.5c1.6-3.4,0.7-7.5-2.4-9.9c0-0.1,0.1-0.1,0.1-0.2
			c2.5-3.2,1.9-7.9-1.3-10.4c-3.2-2.5-7.9-1.9-10.4,1.3c0,0.1-0.1,0.1-0.1,0.2l0,0c-3.6-2.8-8.7-2.1-11.5,1.4
			c-0.8,1-1.3,2.1-1.5,3.3H66c3.5,0,6.6,2.2,7.8,5.4L80.6,43l0.8,1.8h3.5c2.2,0,4,1.8,4,4v13.3c0.3,0.1,0.5,0.2,0.7,0.3
			c1.5-1.6,2.4-3.7,2.3-6.1c0.1,0,0.1,0,0.2,0c4.1-0.2,7.2-3.7,7-7.7C98.9,44.5,95.5,41.4,91.4,41.6z"/>
		<path class="st2" d="M89.6,63.2c-0.2,0-0.3,0-0.5-0.1s-0.3-0.2-0.5-0.2c-0.4-0.1-0.6-0.4-0.6-0.8V48.8c0-1.8-1.4-3.2-3.2-3.2h-3.5
			c-0.3,0-0.6-0.2-0.8-0.5l-0.8-1.8l0,0L73,25.5c-1.1-2.9-3.9-4.9-7-4.9h-7.8c-0.2,0-0.5-0.1-0.6-0.3c-0.2-0.2-0.2-0.4-0.2-0.7
			c0.3-1.3,0.9-2.5,1.7-3.6c2.9-3.7,8.1-4.5,12-2c2.8-3.2,7.7-3.6,11.1-1c1.7,1.3,2.8,3.3,3.1,5.5c0.2,2-0.2,3.9-1.3,5.6
			c2.6,2.5,3.5,6.2,2.3,9.6c3,1.2,5.1,3.9,5.5,7.1c2,0,3.8,0.8,5.3,2.1c1.6,1.5,2.6,3.5,2.7,5.7s-0.6,4.3-2.1,5.9
			c-1.3,1.5-3.1,2.4-5.1,2.6c-0.1,2.2-1,4.3-2.6,5.9C90.1,63.2,89.8,63.2,89.6,63.2z M81.9,44h3c2.7,0,4.8,2.2,4.8,4.8v12.3
			c1-1.4,1.5-3,1.4-4.7c0-0.2,0.1-0.4,0.2-0.6c0.2-0.2,0.4-0.3,0.6-0.3H92h0.1c1.7-0.1,3.4-0.9,4.5-2.1c1.2-1.3,1.8-3,1.7-4.7
			c-0.1-1.7-0.9-3.4-2.1-4.5c-1.3-1.2-3-1.8-4.7-1.7l0,0c0,0,0,0-0.1,0h-0.1c-0.2,0-0.4-0.1-0.6-0.2c-0.2-0.1-0.3-0.4-0.3-0.6
			c0,0,0,0,0-0.1c-0.2-3.1-2.3-5.8-5.3-6.7c-0.2-0.1-0.4-0.2-0.5-0.4s-0.1-0.5,0-0.7c1.5-3.1,0.6-6.8-2.1-8.9
			c-0.2-0.1-0.3-0.3-0.3-0.6c0-0.2,0-0.4,0.2-0.6l0.1-0.1l0,0c1.1-1.4,1.5-3.1,1.3-4.8c-0.2-1.7-1.1-3.3-2.5-4.4
			c-2.9-2.2-7-1.7-9.2,1.1l0,0c0,0,0,0.1-0.1,0.1c-0.1,0.2-0.3,0.3-0.6,0.3c-0.2,0-0.4,0-0.6-0.2l0,0c-3.2-2.5-7.8-1.9-10.3,1.3
			c-0.5,0.6-0.8,1.2-1.1,1.9h6.7c3.8,0,7.2,2.4,8.6,5.9l6.7,17.8L81.9,44z"/>
		<path class="st1" d="M98.9,30.5c0,2.3-1.8,4.1-4.1,4.1c-2.3,0-4.1-1.8-4.1-4.1s1.8-4.1,4.1-4.1C97.1,26.4,98.9,28.2,98.9,30.5z"/>
		<path class="st2" d="M94.8,35.5c-1.1,0-2.1-0.3-3-1c-1-0.8-1.7-2-1.9-3.3c-0.2-1.3,0.2-2.6,1-3.7c0.8-1,2-1.7,3.3-1.9
			c1.3-0.2,2.6,0.2,3.7,1c2.2,1.7,2.5,4.8,0.9,6.9C97.7,34.8,96.3,35.5,94.8,35.5z M94.8,27.2c-0.1,0-0.3,0-0.4,0
			c-0.9,0.1-1.7,0.6-2.2,1.3c-1.1,1.4-0.9,3.5,0.6,4.6c1.4,1.1,3.5,0.9,4.6-0.6c1.1-1.4,0.9-3.5-0.6-4.6
			C96.2,27.5,95.5,27.2,94.8,27.2z"/>
		<path class="st3" d="M81.2,44.8H18.8l7.3-19.6c1.2-3.3,4.3-5.4,7.8-5.4h32.2c3.5,0,6.6,2.2,7.8,5.4L81.2,44.8z"/>
		<path class="st4" d="M25.2,39.5L30,26.7c0.6-1.6,2.2-2.7,3.9-2.7h32.2c1.7,0,3.3,1.1,3.9,2.7l4.8,12.9c0.2,0.5-0.2,1.1-0.8,1.1H26
			C25.4,40.6,25,40.1,25.2,39.5z"/>
		<path class="st5" d="M7.7,11.4c-1.4,3-3.7,5.5-6.5,7.2c-0.5,0.3-0.5,1,0,1.3c2.9,1.7,5.1,4.2,6.5,7.2c0.3,0.6,1.1,0.6,1.4,0
			c1.4-3,3.7-5.5,6.5-7.2c0.5-0.3,0.5-1,0-1.3c-2.9-1.7-5.1-4.2-6.5-7.2C8.8,10.8,8,10.8,7.7,11.4z"/>
		<path class="st5" d="M18.2,2.3c-1,2.1-2.6,3.9-4.6,5c-0.4,0.2-0.4,0.7,0,0.9c2,1.2,3.6,2.9,4.6,5c0.2,0.4,0.8,0.4,1,0
			c1-2.1,2.6-3.9,4.6-5c0.4-0.2,0.4-0.7,0-0.9c-2-1.2-3.6-2.9-4.6-5C19,1.8,18.4,1.8,18.2,2.3z"/>
		<path class="st4" d="M98.2,88.1H1.8c-0.5,0-1-0.4-1-1v-3.8c0-0.5,0.4-1,1-1h96.4c0.5,0,1,0.4,1,1v3.8
			C99.2,87.7,98.7,88.1,98.2,88.1z"/>
		<path class="st2" d="M98.2,89H1.8c-1,0-1.8-0.8-1.8-1.8v-3.8c0-1,0.8-1.8,1.8-1.8h96.4c1,0,1.8,0.8,1.8,1.8v3.8
			C100,88.2,99.2,89,98.2,89z M1.8,83.2c-0.1,0-0.2,0.1-0.2,0.2v3.8c0,0.1,0.1,0.2,0.2,0.2h96.4c0.1,0,0.2-0.1,0.2-0.2v-3.8
			c0-0.1-0.1-0.2-0.2-0.2H1.8z"/>
		<path class="st1" d="M55.6,32.3H44.4c-0.8,0-1.4-0.6-1.4-1.4v-2.8c0-0.8,0.6-1.4,1.4-1.4h11.1c0.8,0,1.4,0.6,1.4,1.4v2.8
			C56.9,31.7,56.3,32.3,55.6,32.3z"/>
		<path class="st3" d="M50,29.5c-0.8,0-1.4-0.6-1.4-1.4V24h2.8v4.2C51.4,28.9,50.8,29.5,50,29.5z"/>
		<path class="st2" d="M81.2,45.6H18.8c-0.3,0-0.5-0.1-0.7-0.4c-0.2-0.2-0.2-0.5-0.1-0.8l7.3-19.6c1.3-3.6,4.8-5.9,8.6-5.9h32.2
			c3.8,0,7.2,2.4,8.6,5.9L82,44.5c0.1,0.3,0.1,0.5-0.1,0.8C81.8,45.5,81.5,45.6,81.2,45.6z M19.9,44H80l-6.9-18.5
			c-1.1-2.9-3.9-4.9-7-4.9H33.9c-3.1,0-5.9,2-7,4.9L19.9,44z"/>
		<path class="st6" d="M88.3,72.7H11.1c-1.3,0-2.4-1.1-2.4-2.4v-5.9c0-1.3,1.1-2.4,2.4-2.4h77.3c1.3,0,2.4,1.1,2.4,2.4v5.9
			C90.7,71.6,89.6,72.7,88.3,72.7z"/>
		<path class="st2" d="M88.3,73.5H11.1c-1.8,0-3.2-1.4-3.2-3.2v-5.9c0-1.8,1.4-3.2,3.2-3.2h77.3c1.8,0,3.2,1.4,3.2,3.2v5.9
			C91.5,72.1,90.1,73.5,88.3,73.5z M11.1,62.8c-0.8,0-1.5,0.7-1.5,1.5v5.9c0,0.8,0.7,1.5,1.5,1.5h77.3c0.8,0,1.5-0.7,1.5-1.5v-5.9
			c0-0.8-0.7-1.5-1.5-1.5C88.4,62.8,11.1,62.8,11.1,62.8z"/>
		<path class="st7" d="M20.6,72.7V80c0,1.3,1.1,2.4,2.4,2.4h6.8c1.3,0,2.4-1.1,2.4-2.4v-7.4L20.6,72.7L20.6,72.7z"/>
		<path class="st2" d="M29.8,83.2H23c-1.8,0-3.2-1.4-3.2-3.2v-7.4c0-0.5,0.4-0.8,0.8-0.8h11.5c0.5,0,0.8,0.4,0.8,0.8V80
			C32.9,81.8,31.5,83.2,29.8,83.2z M21.5,73.5V80c0,0.8,0.7,1.5,1.5,1.5h6.8c0.8,0,1.5-0.7,1.5-1.5v-6.5H21.5z"/>
		<path class="st7" d="M68.5,72.7V80c0,1.3,1.1,2.4,2.4,2.4h6.8c1.3,0,2.4-1.1,2.4-2.4v-7.4L68.5,72.7L68.5,72.7z"/>
		<path class="st2" d="M77.7,83.2h-6.8c-1.8,0-3.2-1.4-3.2-3.2v-7.4c0-0.5,0.4-0.8,0.8-0.8H80c0.5,0,0.8,0.4,0.8,0.8V80
			C80.8,81.8,79.4,83.2,77.7,83.2z M69.4,73.5V80c0,0.8,0.7,1.5,1.5,1.5h6.8c0.8,0,1.5-0.7,1.5-1.5v-6.5H69.4z"/>
		<path class="st3" d="M88.3,62c0.2,0,0.4,0,0.6,0.1V48.8c0-2.2-1.8-4-4-4H15.1c-2.2,0-4,1.8-4,4V62H88.3L88.3,62z"/>
		<path class="st2" d="M88.9,62.9c-0.1,0-0.1,0-0.2,0s-0.2,0-0.4,0H11.1c-0.5,0-0.8-0.4-0.8-0.8V48.8c0-2.7,2.2-4.8,4.8-4.8h69.7
			c2.7,0,4.8,2.2,4.8,4.8v13.3c0,0.3-0.1,0.5-0.3,0.6C89.2,62.8,89.1,62.9,88.9,62.9z M11.9,61.2H88V48.8c0-1.8-1.4-3.2-3.2-3.2
			H15.1c-1.8,0-3.2,1.4-3.2,3.2C11.9,48.8,11.9,61.2,11.9,61.2z"/>
		<path class="st7" d="M26,60.2c-3.7,0-6.8-3-6.8-6.8s3-6.8,6.8-6.8s6.8,3,6.8,6.8S29.8,60.2,26,60.2z"/>
		<path class="st5" d="M26,58.1c-2.6,0-4.7-2.1-4.7-4.7c0-2.6,2.1-4.7,4.7-4.7s4.7,2.1,4.7,4.7C30.8,56,28.7,58.1,26,58.1z"/>
		<path class="st7" d="M74,60.2c-3.7,0-6.8-3-6.8-6.8s3-6.8,6.8-6.8s6.8,3,6.8,6.8S77.7,60.2,74,60.2z"/>
		<path class="st5" d="M74,58.1c-2.6,0-4.7-2.1-4.7-4.7c0-2.6,2.1-4.7,4.7-4.7s4.7,2.1,4.7,4.7S76.6,58.1,74,58.1z"/>
		<path class="st8" d="M62.9,56.9H37.1c-0.9,0-1.6-0.7-1.6-1.6v-3.7c0-0.9,0.7-1.6,1.6-1.6H63c0.9,0,1.6,0.7,1.6,1.6v3.7
			C64.6,56.1,63.8,56.9,62.9,56.9z"/>
		<path class="st1" d="M21,28.9c0,2.3-1.8,4.1-4.1,4.1s-4.1-1.8-4.1-4.1s1.8-4.1,4.1-4.1S21,26.6,21,28.9z"/>
		<path class="st2" d="M16.9,33.8c-1.1,0-2.1-0.3-3-1c-1-0.8-1.7-2-1.9-3.3s0.2-2.6,1-3.7c0.8-1,2-1.7,3.3-1.9
			c1.3-0.2,2.6,0.2,3.7,1c2.2,1.7,2.5,4.8,0.9,6.9C19.8,33.2,18.4,33.8,16.9,33.8z M16.9,25.6c-0.1,0-0.3,0-0.4,0
			c-0.9,0.1-1.7,0.6-2.2,1.3c-1.1,1.4-0.9,3.5,0.6,4.6c1.4,1.1,3.5,0.9,4.6-0.6c1.1-1.4,0.9-3.5-0.6-4.6
			C18.4,25.8,17.7,25.6,16.9,25.6z"/>
	</g>
</g>
</svg>
