<?xml version="1.0" encoding="utf-8"?>
<!-- Generator: Adobe Illustrator 22.0.0, SVG Export Plug-In . SVG Version: 6.00 Build 0)  -->
<svg version="1.1" id="Layer_1" xmlns="http://www.w3.org/2000/svg" xmlns:xlink="http://www.w3.org/1999/xlink" x="0px" y="0px"
	 viewBox="0 0 100 100" style="enable-background:new 0 0 100 100;" xml:space="preserve">
<style type="text/css">
	.st0{fill:#F2F2F2;}
	.st1{fill:#7ACDD2;}
	.st2{fill:#F8CECD;}
	.st3{fill:#4464AE;}
	.st4{fill:#4B70B6;}
	.st5{fill:#E0E9F6;}
	.st6{fill:#A8C5E7;}
	.st7{fill:#F6A6A7;}
	.st8{fill:#FDE890;}
</style>
<g>
	<path class="st0" d="M1.1,35.1C0.6,26.7,3.8,18.5,10,12.8c7.6-7,21-14.1,43.6-12.6c0,0,50,5.2,45.1,42.4c-0.2,1.2-0.4,2.3-0.7,3.4
		c-2.6,9.7-17.8,62.8-38.9,52.7c0,0-32.7-14.4-50.5-38.6C8.5,60.2,2.1,51.8,1.1,35.1z"/>
	<g>
		<g>
			<polygon class="st1" points="90.6,67.3 90.6,86.8 83.5,86.8 83.5,70.8 72.9,70.8 72.9,67.3 86.2,67.3 			"/>
			<rect x="86.2" y="12.3" class="st2" width="4.4" height="55"/>
			<polygon class="st1" points="27.5,67.3 27.5,70.8 16.9,70.8 16.9,86.8 9.8,86.8 9.8,67.3 14.2,67.3 			"/>
			<rect x="9.8" y="12.3" class="st2" width="4.4" height="55"/>
			<path class="st3" d="M9.8,88h7.1c0.7,0,1.2-0.6,1.2-1.2V72.1h9.4c0.7,0,1.2-0.5,1.2-1.2l0,0v-3.5c0-0.7-0.5-1.2-1.2-1.2l0,0H15.4
				V12.3c0-0.7-0.6-1.2-1.3-1.2H9.8c-0.7,0-1.3,0.6-1.3,1.2v74.5C8.5,87.5,9.1,88,9.8,88z M11,13.5h2V66h-2V13.5z M11,68.5h15.3v1.1
				h-9.4c-0.7,0-1.2,0.6-1.2,1.2v14.7H11V68.5z"/>
			<path class="st3" d="M71.7,67.3v3.5c0,0.7,0.5,1.2,1.2,1.2l0,0h9.4v14.7c0,0.7,0.6,1.2,1.2,1.2h7.1c0.7,0,1.3-0.6,1.3-1.2V12.3
				c0-0.7-0.6-1.2-1.3-1.2h-4.4c-0.7,0-1.3,0.6-1.3,1.2V66h-12C72.2,66,71.7,66.6,71.7,67.3C71.7,67.2,71.7,67.3,71.7,67.3z
				 M87.4,13.5h2V66h-2V13.5z M74.1,68.5h15.3v17h-4.6V70.8c0-0.7-0.6-1.2-1.2-1.2h-9.4v-1.1H74.1z"/>
			<g>
				<path class="st4" d="M74.6,34.8l-48.3-0.1L32,19.6c0.9-2.5,3.4-4.2,6-4.2h24.9c2.7,0,5.1,1.7,6,4.2L74.6,34.8z"/>
				<path class="st5" d="M31.3,30.6l3.7-9.9c0.5-1.3,1.7-2.1,3-2.1h24.9c1.3,0,2.5,0.8,3,2.1l3.7,9.9c0.2,0.4-0.2,0.9-0.6,0.9
					l-37.2-0.1C31.4,31.5,31.1,31,31.3,30.6z"/>
				<path class="st6" d="M54.8,25.1h-8.6c-0.6,0-1.1-0.5-1.1-1.1v-2.1c0-0.6,0.5-1.1,1.1-1.1h8.6c0.6,0,1.1,0.5,1.1,1.1V24
					C55.9,24.6,55.4,25.1,54.8,25.1z"/>
				<path class="st4" d="M50.5,22.9c-0.6,0-1.1-0.5-1.1-1.1v-3.2h2.1v3.2C51.6,22.5,51.1,22.9,50.5,22.9z"/>
				<path class="st3" d="M74.6,35.4l-48.3-0.1c-0.2,0-0.4-0.1-0.5-0.3s-0.1-0.4-0.1-0.6l5.7-15.1c1-2.7,3.7-4.6,6.6-4.6h24.9
					c2.9,0,5.6,1.9,6.6,4.6l5.7,15.2c0.1,0.2,0,0.4-0.1,0.6C75,35.3,74.8,35.4,74.6,35.4z M27.2,34.1l46.5,0.1l-5.3-14.3
					c-0.8-2.3-3-3.8-5.4-3.8H38.1c-2.4,0-4.6,1.5-5.4,3.8L27.2,34.1z"/>
				<path class="st1" d="M80.1,56.3l-59.7-0.1c-1,0-1.8-0.8-1.8-1.8v-4.6c0-1,0.8-1.8,1.8-1.8l59.7,0.1c1,0,1.8,0.8,1.8,1.8v4.6
					C81.9,55.5,81.1,56.4,80.1,56.3z"/>
				<path class="st3" d="M80.1,57l-59.7-0.1c-1.4,0-2.5-1.1-2.5-2.5v-4.6c0-1.4,1.1-2.5,2.5-2.5l59.7,0.1c1.4,0,2.5,1.1,2.5,2.5v4.6
					C82.5,55.9,81.4,57,80.1,57z M20.3,48.6c-0.7,0-1.2,0.5-1.2,1.2v4.6c0,0.7,0.5,1.2,1.2,1.2L80,55.7c0.7,0,1.2-0.5,1.2-1.2v-4.6
					c0-0.7-0.5-1.2-1.2-1.2L20.3,48.6z"/>
				<path class="st7" d="M27.7,56.3V62c0,1,0.8,1.8,1.8,1.8h5.2c1,0,1.8-0.8,1.8-1.8v-5.7H27.7z"/>
				<path class="st3" d="M34.8,64.4h-5.2c-1.4,0-2.5-1.1-2.5-2.5v-5.7c0-0.3,0.3-0.6,0.6-0.6h8.9c0.3,0,0.6,0.3,0.6,0.6v5.7
					C37.2,63.3,36.1,64.4,34.8,64.4z M28.4,56.9V62c0,0.7,0.5,1.2,1.2,1.2h5.2c0.7,0,1.2-0.5,1.2-1.2v-5.1H28.4z"/>
				<path class="st7" d="M64.8,56.3V62c0,1,0.8,1.8,1.8,1.8h5.2c1,0,1.8-0.8,1.8-1.8v-5.7H64.8z"/>
				<path class="st3" d="M71.8,64.5h-5.2c-1.4,0-2.5-1.1-2.5-2.5v-5.7c0-0.3,0.3-0.6,0.6-0.6h8.9c0.3,0,0.6,0.3,0.6,0.6V62
					C74.3,63.4,73.2,64.5,71.8,64.5z M65.4,57v5.1c0,0.7,0.5,1.2,1.2,1.2h5.2c0.7,0,1.2-0.5,1.2-1.2V57H65.4z"/>
				<path class="st4" d="M80.1,48.1c0.1,0,0.3,0,0.4,0.1V37.9c0-1.7-1.4-3.1-3.1-3.1l-53.9-0.1c-1.7,0-3.1,1.4-3.1,3.1V48L80.1,48.1
					L80.1,48.1z"/>
				<path class="st3" d="M80.5,48.8C80.4,48.8,80.4,48.8,80.5,48.8c-0.2,0-0.3,0-0.4,0l-59.7-0.1c-0.4,0-0.6-0.3-0.6-0.6V37.9
					c0-2.1,1.7-3.7,3.8-3.7l53.9,0.1c2.1,0,3.7,1.7,3.7,3.8v10.3c0,0.2-0.1,0.4-0.2,0.5C80.8,48.8,80.6,48.8,80.5,48.8z M21,47.4
					l58.8,0.1v-9.6c0-1.4-1.1-2.5-2.5-2.5l-53.9-0.1c-1.4,0-2.5,1.1-2.5,2.5L21,47.4z"/>
				<path class="st7" d="M31.9,46.6c-2.9,0-5.2-2.4-5.2-5.3c0-2.9,2.4-5.2,5.3-5.2s5.2,2.4,5.2,5.3C37.2,44.3,34.8,46.6,31.9,46.6z"
					/>
				<path class="st8" d="M31.9,45c-2,0-3.7-1.6-3.7-3.7s1.6-3.7,3.7-3.7c2,0,3.7,1.6,3.7,3.7S34,45,31.9,45z"/>
				<path class="st7" d="M69,46.7c-2.9,0-5.2-2.4-5.2-5.3s2.4-5.2,5.3-5.2s5.2,2.4,5.2,5.3S71.9,46.7,69,46.7z"/>
				<path class="st8" d="M69,45.1c-2,0-3.7-1.6-3.7-3.7c0-2,1.6-3.7,3.7-3.7c2,0,3.7,1.6,3.7,3.7C72.6,43.5,71,45.1,69,45.1z"/>
				<path class="st2" d="M60.5,44.1h-20c-0.7,0-1.3-0.6-1.3-1.3V40c0-0.7,0.6-1.3,1.3-1.3h20c0.7,0,1.3,0.6,1.3,1.3v2.8
					C61.7,43.5,61.2,44.1,60.5,44.1z"/>
			</g>
		</g>
		<path class="st5" d="M98.2,88.1H1.8c-0.5,0-1-0.4-1-1v-3.8c0-0.5,0.4-1,1-1h96.4c0.5,0,1,0.4,1,1v3.8
			C99.2,87.7,98.7,88.1,98.2,88.1z"/>
		<path class="st3" d="M98.2,89H1.8c-1,0-1.8-0.8-1.8-1.8v-3.8c0-1,0.8-1.8,1.8-1.8h96.4c1,0,1.8,0.8,1.8,1.8v3.8
			C100,88.2,99.2,89,98.2,89z M1.8,83.2c-0.1,0-0.2,0.1-0.2,0.2v3.8c0,0.1,0.1,0.2,0.2,0.2h96.4c0.1,0,0.2-0.1,0.2-0.2v-3.8
			c0-0.1-0.1-0.2-0.2-0.2H1.8z"/>
	</g>
</g>
</svg>
