<?xml version="1.0" encoding="utf-8"?>
<!-- Generator: Adobe Illustrator 22.0.0, SVG Export Plug-In . SVG Version: 6.00 Build 0)  -->
<svg version="1.1" id="Layer_1" xmlns="http://www.w3.org/2000/svg" xmlns:xlink="http://www.w3.org/1999/xlink" x="0px" y="0px"
	 viewBox="0 0 100 100" style="enable-background:new 0 0 100 100;" xml:space="preserve">
<style type="text/css">
	.st0{fill:#F2F2F2;}
	.st1{fill:#A8C5E7;}
	.st2{fill:#4464AE;}
	.st3{fill:#E0E9F6;}
	.st4{fill:#4B70B6;}
	.st5{fill:#7ACDD2;}
	.st6{fill:#FFFFFF;}
	.st7{fill:#F6A6A7;}
	.st8{fill:#FDE890;}
	.st9{fill:#F8CECD;}
</style>
<g>
	<path class="st0" d="M1.1,35.1C0.6,26.7,3.8,18.5,10,12.8c7.6-7,21-14.1,43.6-12.6c0,0,50,5.2,45.1,42.4c-0.2,1.2-0.4,2.3-0.7,3.4
		c-2.6,9.7-17.8,62.8-38.9,52.7c0,0-32.7-14.4-50.5-38.6C8.5,60.2,2.1,51.8,1.1,35.1z"/>
	<g>
		<polygon class="st1" points="91.2,49.3 96.9,49.9 95.3,46.3 98.7,44.6 94,43 95,39.1 91.9,40.6 89.4,36.8 88.8,41.7 87.3,41.8 
			85.7,45.8 		"/>
		<path class="st2" d="M96,48.9c-0.5-0.7-0.9-1.4-1.2-2c-0.4-0.6-0.3-1.1,0.4-1.4c0.6-0.3,1.2-0.6,2-1c-1.1-0.3-1.9-0.5-2.8-0.7
			c-1.1-0.3-1.3-0.5-1-1.6c0.1-0.5,0.3-0.9,0.4-1.3c-0.1-0.1-0.2-0.1-0.2-0.1c-1.4,0.7-1.4,0.7-2.4-0.6c-0.4-0.4-0.7-0.9-1.2-1.5
			c0,0.9,0,1.5-0.1,2.2c-0.1,0.6-0.2,1.2-0.4,2c0.3,0.2,1.1,0.5,0.6,1.3c-0.5,0.7-1.1,0.1-1.6-0.2c-0.6-0.4-1.2-0.8-1.8-1.2
			c-0.3-0.3-0.4-0.7-0.6-1.1c0.3-0.2,0.7-0.4,1-0.5c0.4-0.1,0.8-0.1,1.2-0.1c0-1.2,0-2.4,0.1-3.5c0-0.5,0.2-1.3,0.5-1.5
			c0.7-0.4,1,0.4,1.3,0.9c0.8,0.9,1.5,1.8,2.2,2.8c0.7-0.4,1.3-0.8,2-1.1c0.3-0.1,0.8-0.2,1,0s0.3,0.6,0.2,0.9c-0.2,1-0.6,2-0.9,3.1
			c1,0.3,2,0.5,2.9,0.8c0.5,0.1,1,0.2,1.5,0.4c0.3,0.1,0.7,0.4,0.7,0.7s-0.3,0.7-0.6,0.9c-1,0.5-2,1-3.1,1.5
			c0.6,0.9,1.1,1.7,1.6,2.6c0.2,0.3,0.2,0.7,0.1,1c-0.1,0.2-0.6,0.3-0.9,0.3c-1.1-0.1-2.2-0.2-3.2-0.3c-0.5-0.1-1-0.3-0.8-0.9
			c0.1-0.3,0.6-0.6,0.9-0.6C94.6,48.7,95.2,48.8,96,48.9z"/>
		<g>
			<path class="st3" d="M98.2,88.6H1.8c-0.5,0-1-0.4-1-1v-3.8c0-0.5,0.4-1,1-1h96.4c0.5,0,1,0.4,1,1v3.8
				C99.2,88.1,98.7,88.6,98.2,88.6z"/>
			<g>
				<path class="st2" d="M98.2,89.4H1.8c-1,0-1.8-0.8-1.8-1.8v-3.8c0-1,0.8-1.8,1.8-1.8h96.4c1,0,1.8,0.8,1.8,1.8v3.8
					C100,88.6,99.2,89.4,98.2,89.4z M1.8,83.7c-0.1,0-0.2,0.1-0.2,0.2v3.8c0,0.1,0.1,0.2,0.2,0.2h96.4c0.1,0,0.2-0.1,0.2-0.2v-3.8
					c0-0.1-0.1-0.2-0.2-0.2H1.8z"/>
			</g>
		</g>
		<g>
			<path class="st2" d="M14.2,43.8c0-0.8-0.6-1.1-1.3-0.7c-2.4,1.5-4.8,3-7.1,4.6C5.3,48,5,48.4,5.4,48.9c0.3,0.5,0.8,0.4,1.2,0.1
				c2.3-1.5,4.7-3,7-4.5C13.9,44.3,14,44,14.2,43.8z M6.9,45.8c0.2,0,0.3,0,0.4-0.1c1.1-0.7,2.2-1.4,3.2-2.2c0.2-0.1,0.1-0.7,0-0.9
				c-0.2-0.2-0.7-0.3-0.9-0.2c-1.1,0.6-2.1,1.3-3.1,2.1c-0.2,0.1-0.2,0.6-0.1,0.8C6.4,45.6,6.7,45.7,6.9,45.8z M12.7,46.4
				c-0.2,0-0.3,0-0.3,0c-1.1,0.7-2.2,1.4-3.3,2.2c-0.1,0.1-0.1,0.7,0,0.9c0.2,0.2,0.7,0.3,0.9,0.2c1-0.6,2-1.3,3-2
				c0.2-0.1,0.3-0.6,0.2-0.9C13.1,46.7,12.8,46.5,12.7,46.4z M56.8,65.5l-2,2.1c-1.6,1.7-3.4,2.6-5.6,2.3c-2.2-0.3-3.8-1.5-4.8-3.6
				c-1.2-2.6-0.3-7.2,4.8-8.4c0-1.4,0-2.8,0-4.1c0-0.2-0.2-0.4-0.4-0.5c-1.1-0.6-1.8-1.4-1.8-2.7s0.7-2.2,1.8-2.8
				c0.2-0.1,0.4-0.4,0.4-0.7c0-4.1,0-8.3,0-12.4c0-0.2-0.3-0.6-0.5-0.7c-0.7-0.3-1.4-0.6-2.1-0.9c-8.7,6.3-17.4,12.7-26.2,19.1
				c0,0.1,0,0.1,0,0.2c0.3,0,0.6,0,1,0c4.8,0,9.7,0,14.5,0c1.3,0,1.6,0.3,1.6,1.6c0,4,0,8,0,12c0,0.3,0,0.7,0,1.1c1,0,2,0,2.9,0
				s1.3,0.4,1.3,1.3c0,1.7,0,3.4,0,5.2c-4.5,0-8.9,0-13.3,0c-1.7,5.4-4.3,7.6-8.7,7.5c-3.9-0.1-6.6-2.7-7.8-7.4c-3.9,0-7.9,0-11.9,0
				c0-11.9,0-23.9,0-35.8c6,0,12,0,18.1,0c1.3,0,1.6,0.3,1.6,1.6c0,0.6,0,1.2,0,1.9c0.4-0.2,0.7-0.3,1-0.4
				c7.7-3.8,15.5-7.5,23.2-11.3c0.5-0.2,0.7-0.5,0.8-1.1c0.1-2.4,2.1-4.6,4.5-4.9c2.6-0.3,5,1.2,5.8,3.7c0.7,2.4-0.4,5-2.7,6.1
				c-0.5,0.2-1,0.4-1.6,0.6c0,3.5,0,7,0,10.5c0,0.4,0,0.8,0,1.2c0,0.9,0,1.7,1.1,2.3c1.8,1.1,1.6,3.9-0.3,4.8
				c-0.6,0.3-0.7,0.7-0.7,1.3c0,1.3,0,2.6,0,3.9c0,0.8-0.2,1.1-1.1,1.2c-2.2,0.2-3.7,1.7-4.1,3.8c-0.3,1.8,0.8,3.8,2.5,4.6
				s5.6,0.4,6.7-2.8 M1.5,39.4c0,4.5,0,13.4,0,13.4v1.5c0,0,0,11.9,0,17.8c3.5,0,6.9,0,10.3,0c1.1-4.5,3.9-7.3,7.6-7.4
				c4.6-0.2,7.1,2,8.9,7.4c3.9,0,7.9,0,11.8,0c0-1.2,0-2.3,0-3.5c-1.4,0-2.8,0-4.2,0c0-4.9,0-9.8,0-14.7c-6,0-11.8,0-17.8,0
				c0-4.9,0-9.6,0-14.5C12.5,39.4,7.1,39.4,1.5,39.4z M19.7,50.8c8.8-6.4,17.3-12.6,25.9-18.9c-0.3-0.4-0.4-0.7-0.6-1
				C36.7,35,28.4,39,20.2,43c-0.2,0.1-0.4,0.4-0.4,0.6C19.7,46,19.7,48.3,19.7,50.8z M20.1,66.2c-3.6,0-6.7,3-6.7,6.6
				c0,3.7,3.1,6.8,6.7,6.8s6.7-3.1,6.7-6.7S23.8,66.3,20.1,66.2z M49.9,25.2c-2,0-3.7,1.8-3.7,3.7c0,2,1.8,3.8,3.8,3.7
				c2,0,3.7-1.7,3.7-3.7C53.7,27,51.9,25.2,49.9,25.2z M49.9,49.1c-0.8,0-1.5,0.7-1.5,1.5s0.7,1.5,1.5,1.5s1.5-0.7,1.5-1.5
				S50.7,49.1,49.9,49.1z"/>
			<path class="st4" d="M1.5,52.8c0-4.5,0-8.9,0-13.4c5.5,0,11,0,16.6,0c0,4.8,0,9.6,0,14.5c6,0,11.8,0,17.8,0c0,4.9,0,9.8,0,14.7
				c1.5,0,2.8,0,4.2,0c0,1.2,0,2.3,0,3.5c-3.9,0-7.9,0-11.8,0c-1.8-5.4-4.3-7.6-8.9-7.4c-3.7,0.1-6.5,2.8-7.6,7.4
				c-3.4,0-6.8,0-10.3,0c0-5.9,0-11.8,0-17.8L1.5,52.8z"/>
			<rect x="1.9" y="39.7" class="st1" width="15.8" height="12.7"/>
			<path class="st5" d="M19.7,50.8c0-2.5,0-4.9,0-7.2c0-0.2,0.2-0.5,0.4-0.6c8.3-4,16.6-8,24.9-12.1c0.2,0.3,0.4,0.6,0.6,1
				C37.1,38.2,28.5,44.4,19.7,50.8z"/>
			<path class="st3" d="M20.1,66.2c3.7,0,6.7,3.1,6.7,6.7s-3.1,6.7-6.7,6.7c-3.7,0-6.8-3.1-6.7-6.8C13.4,69.3,16.5,66.2,20.1,66.2z
				 M20.1,70c-1.7,0-3,1.3-3,3s1.3,3,3,3c1.6,0,2.9-1.3,2.9-2.9C23.1,71.3,21.8,70,20.1,70z"/>
			<path class="st6" d="M49.9,25.2c2,0,3.8,1.7,3.8,3.7S52,32.6,50,32.6s-3.7-1.7-3.8-3.7C46.2,27,47.9,25.3,49.9,25.2z M52.2,29
				c0-1.3-1-2.2-2.2-2.2c-1.3,0-2.2,1-2.2,2.2c0,1.3,1,2.2,2.2,2.2S52.2,30.2,52.2,29z"/>
			<path class="st6" d="M49.9,49.1c0.8,0,1.5,0.7,1.5,1.5s-0.7,1.5-1.5,1.5s-1.5-0.7-1.5-1.5S49.2,49.1,49.9,49.1z"/>
			<path class="st7" d="M14.2,43.8c-0.1,0.1-0.3,0.4-0.5,0.6c-2.3,1.5-4.7,3-7,4.5c-0.4,0.3-0.9,0.4-1.2-0.1C5,48.4,5.3,48,5.7,47.7
				c2.4-1.5,4.7-3.1,7.1-4.6C13.5,42.7,14.1,43,14.2,43.8z"/>
			<path class="st7" d="M6.9,45.8c-0.1-0.1-0.5-0.3-0.5-0.5c-0.1-0.2,0-0.7,0.1-0.8c1-0.7,2-1.4,3.1-2.1c0.2-0.1,0.7,0,0.9,0.2
				s0.2,0.8,0,0.9c-1,0.8-2.1,1.5-3.2,2.2C7.2,45.8,7.1,45.8,6.9,45.8z"/>
			<path class="st7" d="M12.7,46.4c0.1,0.1,0.5,0.2,0.5,0.4c0.1,0.3,0,0.8-0.2,0.9c-1,0.7-2,1.4-3,2c-0.2,0.1-0.7,0-0.9-0.2
				s-0.2-0.8,0-0.9c1.1-0.8,2.2-1.5,3.3-2.2C12.4,46.4,12.5,46.4,12.7,46.4z"/>
			<path class="st7" d="M20.1,70c1.7,0,3,1.3,3,3c0,1.6-1.3,2.9-2.9,2.9c-1.7,0-3-1.3-3-3C17.1,71.3,18.5,70,20.1,70z M21.6,73
				c0-0.8-0.7-1.5-1.4-1.5c-0.8,0-1.5,0.7-1.5,1.5s0.7,1.5,1.4,1.5C20.9,74.4,21.6,73.8,21.6,73z"/>
			<path class="st7" d="M52.2,29c0,1.3-1,2.2-2.2,2.2c-1.3,0-2.2-1-2.2-2.2c0-1.3,1-2.2,2.2-2.2C51.2,26.7,52.2,27.7,52.2,29z"/>
			<path class="st8" d="M21.6,73c0,0.8-0.7,1.5-1.5,1.4c-0.8,0-1.5-0.8-1.4-1.5c0-0.8,0.8-1.5,1.5-1.5C20.9,71.5,21.6,72.2,21.6,73z
				"/>
			<g>
				<path class="st4" d="M95.1,61.6L62,50.7l7.3-9.1c1.2-1.5,3.2-2.1,5.1-1.5l17,5.6c1.8,0.6,3.1,2.3,3.2,4.2L95.1,61.6z"/>
				<path class="st3" d="M66.3,49.1l4.8-6c0.6-0.8,1.6-1.1,2.5-0.8l17,5.6c0.9,0.3,1.6,1.1,1.6,2.1l0.3,7.6c0,0.3-0.3,0.6-0.6,0.5
					l-25.5-8.3C66.2,49.7,66.1,49.3,66.3,49.1z"/>
				<path class="st1" d="M83.6,50.5l-5.9-1.9c-0.4-0.1-0.6-0.6-0.5-1l0.5-1.5c0.1-0.4,0.6-0.6,1-0.5l5.9,1.9c0.4,0.1,0.6,0.6,0.5,1
					L84.6,50C84.5,50.4,84.1,50.6,83.6,50.5z"/>
				<path class="st4" d="M81.2,48.1c-0.4-0.1-0.6-0.6-0.5-1l0.7-2.2l1.5,0.5l-0.7,2.2C82,48,81.6,48.2,81.2,48.1z"/>
				<path class="st2" d="M94.9,62l-33-10.8c-0.1,0-0.3-0.2-0.3-0.3s0-0.3,0.1-0.4l7.3-9.1c1.3-1.6,3.6-2.3,5.6-1.7l17,5.6
					c2,0.7,3.4,2.5,3.5,4.6l0.5,11.6c0,0.1-0.1,0.3-0.2,0.4C95.2,62,95.1,62,94.9,62z M62.8,50.5l31.8,10.4l-0.5-11
					c-0.1-1.7-1.2-3.3-2.9-3.8l-17-5.6c-1.6-0.5-3.5,0-4.6,1.4L62.8,50.5z"/>
				<path class="st5" d="M94,77.5L53.1,64.2c-0.7-0.2-1.1-1-0.8-1.7l1-3.1c0.2-0.7,1-1.1,1.7-0.8L95.9,72c0.7,0.2,1.1,1,0.8,1.7
					l-1,3.1C95.4,77.4,94.7,77.8,94,77.5z"/>
				<path class="st2" d="M93.9,78L53,64.6c-0.9-0.3-1.4-1.3-1.1-2.2l1-3.1c0.3-0.9,1.3-1.4,2.2-1.1L96,71.5c0.9,0.3,1.4,1.3,1.1,2.2
					l-1,3.1C95.8,77.8,94.8,78.3,93.9,78z M54.8,59c-0.4-0.1-0.9,0.1-1.1,0.5l-1,3.1c-0.1,0.4,0.1,0.9,0.5,1.1l40.9,13.4
					c0.4,0.1,0.9-0.1,1.1-0.5l1-3.1c0.1-0.4-0.1-0.9-0.5-1.1L54.8,59z"/>
				<path class="st7" d="M58.2,65.8l-1.3,3.9c-0.2,0.7,0.2,1.4,0.8,1.7l3.6,1.2c0.7,0.2,1.4-0.2,1.7-0.8l1.3-3.9L58.2,65.8z"/>
				<path class="st2" d="M61.2,73l-3.6-1.2c-0.9-0.3-1.4-1.3-1.1-2.2l1.3-3.9c0.1-0.2,0.3-0.4,0.6-0.3l6.1,2
					c0.2,0.1,0.4,0.3,0.3,0.6l-1.3,3.9C63.1,72.8,62.1,73.3,61.2,73z M58.5,66.4l-1.1,3.5c-0.1,0.4,0.1,0.9,0.5,1.1l3.6,1.2
					c0.4,0.1,0.9-0.1,1.1-0.5l1.1-3.5L58.5,66.4z"/>
				<path class="st7" d="M83.5,74.1L82.3,78c-0.2,0.7,0.2,1.4,0.8,1.7l3.6,1.2c0.7,0.2,1.4-0.2,1.7-0.8l1.3-3.9L83.5,74.1z"/>
				<path class="st2" d="M86.5,81.3l-3.6-1.2c-0.9-0.3-1.4-1.3-1.1-2.2l1.3-3.9c0.1-0.2,0.3-0.4,0.6-0.3l6.1,2
					c0.2,0.1,0.4,0.3,0.3,0.6l-1.3,3.9C88.5,81.1,87.5,81.6,86.5,81.3z M83.8,74.7l-1.1,3.5c-0.1,0.4,0.1,0.9,0.5,1.1l3.6,1.2
					c0.4,0.1,0.9-0.1,1.1-0.5l1.1-3.5L83.8,74.7z"/>
				<path class="st4" d="M95.8,71.9c0.1,0,0.2,0.1,0.3,0.1l2.3-7c0.4-1.2-0.3-2.4-1.4-2.8L60.1,50.1c-1.2-0.4-2.4,0.3-2.8,1.4
					l-2.3,7L95.8,71.9L95.8,71.9z"/>
				<path class="st2" d="M96,72.5C96,72.5,95.9,72.4,96,72.5c-0.2-0.1-0.2-0.1-0.3-0.1L54.8,59c-0.2-0.1-0.4-0.3-0.3-0.6l2.3-7
					c0.5-1.4,2-2.2,3.4-1.7l36.9,12.1c1.4,0.5,2.2,2,1.7,3.4l-2.3,7c0,0.1-0.1,0.2-0.3,0.3C96.2,72.5,96.1,72.5,96,72.5z M55.5,58.2
					l40.3,13.2l2.1-6.6c0.3-0.9-0.2-1.9-1.1-2.3l-36.9-12c-0.9-0.3-1.9,0.2-2.3,1.1L55.5,58.2z"/>
				<path class="st7" d="M63.2,60.1c-2-0.6-3.1-2.8-2.4-4.8c0.6-2,2.8-3.1,4.8-2.4c2,0.6,3.1,2.8,2.4,4.8
					C67.3,59.7,65.2,60.8,63.2,60.1z"/>
				<path class="st8" d="M63.5,59.1c-1.4-0.5-2.1-1.9-1.7-3.3c0.5-1.4,1.9-2.1,3.3-1.7c1.4,0.5,2.1,1.9,1.7,3.3
					C66.4,58.8,64.9,59.5,63.5,59.1z"/>
				<path class="st7" d="M88.6,68.4c-2-0.6-3.1-2.8-2.4-4.8c0.6-2,2.8-3.1,4.8-2.4c2,0.6,3.1,2.8,2.4,4.8
					C92.7,68,90.5,69.1,88.6,68.4z"/>
				<path class="st8" d="M88.9,67.4c-1.4-0.5-2.1-1.9-1.7-3.3c0.5-1.4,1.9-2.1,3.3-1.7c1.4,0.5,2.1,1.9,1.7,3.3S90.3,67.8,88.9,67.4
					z"/>
				<path class="st9" d="M83.3,64.8l-13.7-4.5c-0.5-0.2-0.7-0.7-0.6-1.2l0.6-1.9c0.2-0.5,0.7-0.7,1.2-0.6l13.7,4.5
					c0.5,0.2,0.7,0.7,0.6,1.2l-0.6,1.9C84.3,64.7,83.8,64.9,83.3,64.8z"/>
			</g>
			<circle class="st8" cx="49.9" cy="29" r="1.2"/>
			<rect x="1.5" y="52.8" class="st2" width="16.6" height="1.1"/>
		</g>
	</g>
</g>
</svg>
